<?xml version="1.0" encoding="UTF-8"?>
<svg version="1.1" xmlns="http://www.w3.org/2000/svg" width="624" height="262">
<path d="M0 0 C5.49608871 4.32670813 9.73552469 9.1332256 14.08203125 14.609375 C15.9337932 17.00649095 15.9337932 17.00649095 18 19 C18.47179687 18.18595703 18.47179687 18.18595703 18.953125 17.35546875 C19.38109375 16.64003906 19.8090625 15.92460938 20.25 15.1875 C20.66765625 14.47980469 21.0853125 13.77210937 21.515625 13.04296875 C23.20397533 10.71926554 24.53455688 9.48832315 27 8 C29.94866943 7.63923645 29.94866943 7.63923645 33.42089844 7.65942383 C35.37246857 7.65976372 35.37246857 7.65976372 37.36346436 7.66011047 C38.77877142 7.67542933 40.19407495 7.6910773 41.609375 7.70703125 C43.06096966 7.71262893 44.51257 7.71689822 45.96417236 7.71989441 C49.77833804 7.7313298 53.59215911 7.76078535 57.40618896 7.79400635 C61.30069314 7.82473562 65.19525319 7.83840583 69.08984375 7.85351562 C76.72671933 7.88565664 84.36331131 7.93683676 92 8 C92 10.31 92 12.62 92 15 C91.24244919 15.00586624 90.48489838 15.01173248 89.70439148 15.01777649 C82.5677729 15.07566238 75.4315051 15.1477147 68.29519939 15.23571491 C64.62626526 15.28045714 60.95744315 15.31970434 57.28833008 15.34643555 C53.74789938 15.37243074 50.20789888 15.41280517 46.66773415 15.46318626 C44.65868965 15.48800978 42.64947883 15.49790981 40.64030457 15.50764465 C38.80874565 15.53733589 38.80874565 15.53733589 36.94018555 15.56762695 C35.86318893 15.57873001 34.78619232 15.58983307 33.67655945 15.60127258 C30.99534045 15.79589323 30.99534045 15.79589323 29.14826965 17.30436707 C27.24325767 20.11747028 27.70198723 22.72185958 28 26 C30.70163572 28.70163572 32.13782364 28.27292903 35.91845703 28.31884766 C37.80624878 28.34893921 37.80624878 28.34893921 39.73217773 28.37963867 C41.07405375 28.39137236 42.41593204 28.40284901 43.7578125 28.4140625 C45.58300415 28.44052856 45.58300415 28.44052856 47.44506836 28.4675293 C52.00490937 28.5307541 56.56497509 28.57683153 61.125 28.625 C71.31375 28.74875 81.5025 28.8725 92 29 C92 50.78 92 72.56 92 95 C85.4 95 78.8 95 72 95 C72.12761719 96.73765625 72.25523437 98.4753125 72.38671875 100.265625 C73.45126515 120.88020025 73.45126515 120.88020025 68.52294922 126.5612793 C66.109408 128.83562431 63.57464641 130.90809979 61 133 C59.47410373 134.7733389 57.99295922 136.58631748 56.5625 138.4375 C50.18418662 146.35858232 43.24205849 153.86115374 36 161 C34.94764 157.52679565 34.8358804 154.28117567 34.77539062 150.66186523 C34.75287231 149.37630234 34.730354 148.09073944 34.70715332 146.76622009 C34.6310339 140.87905509 34.57845194 134.99176959 34.54003906 129.10424805 C34.51782141 126.00504726 34.47613385 122.90706165 34.41699219 119.80834961 C34.34541275 116.04937229 34.30913666 112.29153179 34.29692078 108.53190804 C34.28660171 107.10903119 34.26437397 105.68618301 34.22932434 104.26370049 C33.99237717 94.1186237 35.68599058 87.96342289 42 80 C42.99957514 78.62919063 43.99740444 77.25710339 44.9921875 75.8828125 C45.95019427 74.62796545 46.91114595 73.37536133 47.875 72.125 C48.90888446 70.7562137 49.94141867 69.38640656 50.97265625 68.015625 C52.45735065 66.04486711 53.94294274 64.07499064 55.43701172 62.11132812 C56.74693281 60.37844569 58.03238124 58.62996009 59.3125 56.875 C60.05113281 55.88242188 60.78976563 54.88984375 61.55078125 53.8671875 C63.25737952 51.05285194 63.25737952 51.05285194 62.91796875 47.7578125 C62.21328293 44.69854482 62.21328293 44.69854482 59 43 C56.1629812 42.1538777 56.1629812 42.1538777 53 43 C50.33553062 45.39547576 48.33627503 48.22526378 46.25 51.125 C45.64091797 51.9401709 45.03183594 52.7553418 44.40429688 53.59521484 C42.58076348 56.04816447 40.78628566 58.5198344 39 61 C38.49791016 61.69222656 37.99582031 62.38445312 37.47851562 63.09765625 C35.39085448 65.98020093 33.32475047 68.8749157 31.28125 71.7890625 C29 75 29 75 27.49301147 76.53622437 C21.64795111 82.90360114 22.13736735 89.76314782 22.1953125 98 C22.18404698 99.44590456 22.17015964 100.89179084 22.15377808 102.33764648 C22.11790204 106.11894014 22.11734556 109.89942263 22.12445068 113.68084717 C22.12536692 117.54909565 22.09245807 121.41704548 22.0625 125.28515625 C22.00879051 132.85687848 21.99243725 140.42806453 22 148 C15.93503712 145.67225016 15.93503712 145.67225016 14 143 C13.67871094 140.85864258 13.67871094 140.85864258 13.734375 138.39453125 C13.73566406 137.49702148 13.73695313 136.59951172 13.73828125 135.67480469 C13.74214844 134.73024414 13.74601562 133.78568359 13.75 132.8125 C13.81504137 124.41226782 13.81504137 124.41226782 10 117.25 C8.69788985 116.12933143 7.36207463 115.04696781 6 114 C4.48407216 112.5160988 2.98466899 111.01517589 1.5 109.5 C0.736875 108.7471875 -0.02625 107.994375 -0.8125 107.21875 C-3.39766811 104.59665092 -5.78130346 101.84127795 -8.171875 99.04296875 C-10.9561592 95.93147166 -13.96781435 93.06049922 -16.984375 90.17578125 C-21.04399063 85.79359926 -22.37527224 82.52989555 -22.41992188 76.54492188 C-22.43583374 75.26008911 -22.45174561 73.97525635 -22.46813965 72.65148926 C-22.46940682 71.2572434 -22.46958383 69.86299618 -22.46875 68.46875 C-22.47585561 67.03055526 -22.4835552 65.59236334 -22.49182129 64.1541748 C-22.50524587 61.14485789 -22.50684362 58.13580326 -22.50097656 55.12646484 C-22.4950754 51.27595544 -22.52569625 47.42670476 -22.56609344 43.5764389 C-22.59197808 40.60806536 -22.5948474 37.63999489 -22.59120178 34.67152405 C-22.59289167 33.25217011 -22.6025218 31.83280198 -22.62034607 30.41355896 C-22.6425493 28.42752206 -22.6296188 26.44118705 -22.61523438 24.45507812 C-22.61728882 23.32654419 -22.61934326 22.19801025 -22.62145996 21.03527832 C-21.8136351 17.08977349 -20.01289283 15.56615098 -17 13 C-11.65546274 17.20740167 -7.55585161 21.82825391 -3.3203125 27.140625 C-1.12530146 29.8455881 1.1502746 32.42922029 3.5 35 C8.98750294 41.02568186 14.14997522 47.31632994 19.13671875 53.76171875 C20.8042892 56.06934909 20.8042892 56.06934909 23 57 C24.37342831 57.0689472 25.75002102 57.08467708 27.125 57.0625 C29.043125 57.0315625 29.043125 57.0315625 31 57 C32.22714756 51.92743403 32.22714756 51.92743403 30.40234375 47.20703125 C27.77569121 43.5427879 24.79966688 40.18364392 21.8125 36.8125 C17.19748621 31.54831876 12.68415399 26.22596666 8.27734375 20.78515625 C3.92490561 15.46219159 -0.54528681 10.23741046 -5 5 C-3.35 3.35 -1.7 1.7 0 0 Z " fill="#E09332" transform="translate(147,48)"/>
<path d="M0 0 C8.188125 -0.0825 16.37625 -0.165 24.8125 -0.25 C28.65612183 -0.30462402 28.65612183 -0.30462402 32.57739258 -0.36035156 C34.64143032 -0.37204986 36.70547739 -0.38223897 38.76953125 -0.390625 C39.81443726 -0.41108887 40.85934326 -0.43155273 41.93591309 -0.45263672 C50.08027658 -0.45644383 58.31975108 0.67879976 64.5625 6.3125 C67.59756906 11.98675955 68.34293089 17.64603104 68.3125 24 C68.32861328 24.67289063 68.34472656 25.34578125 68.36132812 26.0390625 C68.36765212 32.5907219 66.7550588 37.08167992 62.3125 41.9375 C61.549375 42.618125 60.78625 43.29875 60 44 C60.969375 44.763125 61.93875 45.52625 62.9375 46.3125 C65.42086332 48.26748815 65.9521672 48.85650159 67 52 C67.08106686 53.55421729 67.10756898 55.11167027 67.09765625 56.66796875 C67.09515869 57.47258545 67.09266113 58.27720215 67.09008789 59.10620117 C67.08098389 60.12302979 67.07187988 61.1398584 67.0625 62.1875 C67.041875 65.425625 67.02125 68.66375 67 72 C59.41 72 51.82 72 44 72 C43.8046875 68.45182292 43.609375 64.90364583 43.4140625 61.35546875 C43.23897061 57.87244766 43.23897061 57.87244766 41 55 C39.07558585 54.49468134 39.07558585 54.49468134 36.8671875 54.48828125 C36.14128418 54.45516846 35.41538086 54.42205566 34.66748047 54.38793945 C33.28520264 54.35059692 33.28520264 54.35059692 31.875 54.3125 C28.94625 54.209375 26.0175 54.10625 23 54 C23 59.94 23 65.88 23 72 C15.41 72 7.82 72 0 72 C0 48.24 0 24.48 0 0 Z M23 19 C23 24.28 23 29.56 23 35 C25.7708983 35.02696009 28.5415345 35.04681952 31.3125 35.0625 C32.09818359 35.07087891 32.88386719 35.07925781 33.69335938 35.08789062 C34.8293457 35.09272461 34.8293457 35.09272461 35.98828125 35.09765625 C37.03302612 35.10551147 37.03302612 35.10551147 38.09887695 35.11352539 C40.22497968 35.06895991 40.22497968 35.06895991 43 34 C44.23184766 31.53630468 44.16732342 29.8105499 44.1875 27.0625 C44.20876953 25.74958984 44.20876953 25.74958984 44.23046875 24.41015625 C44.16663349 21.73755665 44.16663349 21.73755665 42 19 C39.97112689 18.58519893 39.97112689 18.58519893 37.6484375 18.70703125 C36.37226563 18.7215332 36.37226563 18.7215332 35.0703125 18.73632812 C33.73613281 18.7740332 33.73613281 18.7740332 32.375 18.8125 C31.02921875 18.83280273 31.02921875 18.83280273 29.65625 18.85351562 C27.43724529 18.88892527 25.21854824 18.94273346 23 19 Z " fill="#53944D" transform="translate(326,54)"/>
<path d="M0 0 C1.39120471 0.00015906 2.78241534 0.00585033 4.17358398 0.01586914 C4.90463852 0.01728409 5.63569305 0.01869904 6.38890076 0.02015686 C8.73253406 0.02577131 11.07607313 0.03832617 13.41967773 0.05102539 C15.00496282 0.05603853 16.59024939 0.06060176 18.17553711 0.06469727 C22.06945383 0.07574542 25.96329979 0.09301967 29.85717773 0.11352539 C33.15169876 8.00320829 35.92893309 16.03379119 38.62280273 24.14477539 C39.06531603 25.47096488 39.50800728 26.797095 39.9508667 28.12316895 C40.87047735 30.8790759 41.78794901 33.63568277 42.70385742 36.39282227 C43.87887989 39.92937732 45.05935791 43.4640838 46.24139786 46.99829865 C47.15288494 49.72555029 48.06152503 52.45374372 48.96929169 55.18223572 C49.4038051 56.48711007 49.83921005 57.79168789 50.27552032 59.09596252 C50.88148407 60.90879331 51.48320756 62.72303982 52.0847168 64.53735352 C52.42794983 65.5686438 52.77118286 66.59993408 53.12481689 67.66247559 C53.85717773 70.11352539 53.85717773 70.11352539 53.85717773 72.11352539 C45.93717773 72.11352539 38.01717773 72.11352539 29.85717773 72.11352539 C28.53717773 68.48352539 27.21717773 64.85352539 25.85717773 61.11352539 C17.60717773 60.78352539 9.35717773 60.45352539 0.85717773 60.11352539 C-0.13282227 64.07352539 -1.12282227 68.03352539 -2.14282227 72.11352539 C-10.39282227 72.11352539 -18.64282227 72.11352539 -27.14282227 72.11352539 C-21.20370711 53.13530577 -15.22992914 34.171456 -8.95532227 15.30102539 C-8.71776215 14.58334991 -8.48020203 13.86567444 -8.23544312 13.12625122 C-7.56867357 11.114336 -6.89763594 9.10390548 -6.22485352 7.09399414 C-5.84562744 5.95857178 -5.46640137 4.82314941 -5.07568359 3.65332031 C-3.78403167 0.13668723 -3.78403167 0.13668723 0 0 Z M12.85717773 21.11352539 C10.54717773 28.70352539 8.23717773 36.29352539 5.85717773 44.11352539 C10.80717773 44.11352539 15.75717773 44.11352539 20.85717773 44.11352539 C19.3436789 36.6721561 17.56429165 29.21969942 14.85717773 22.11352539 C14.19717773 21.78352539 13.53717773 21.45352539 12.85717773 21.11352539 Z " fill="#55954F" transform="translate(268.142822265625,53.886474609375)"/>
<path d="M0 0 C2.875 2 2.875 2 5 5 C5.40997788 7.80757007 5.24237846 10.13993414 5 13 C6.36125 13.061875 6.36125 13.061875 7.75 13.125 C11 14 11 14 13.375 17.0625 C14.179375 18.5165625 14.179375 18.5165625 15 20 C15.44730469 19.59007812 15.89460938 19.18015625 16.35546875 18.7578125 C16.96003906 18.21898437 17.56460938 17.68015625 18.1875 17.125 C18.77917969 16.59132812 19.37085938 16.05765625 19.98046875 15.5078125 C25.76792212 11.1868125 32.05432344 11.28646496 39 12 C45.30995064 13.75334735 49.27319817 17.76442372 53 23 C54.29376578 25.58753156 54.16832397 27.54958985 54.1875 30.4375 C54.20167969 31.40558594 54.21585937 32.37367188 54.23046875 33.37109375 C54 36 54 36 52 39 C52.350625 39.763125 52.70125 40.52625 53.0625 41.3125 C54 44 54 44 53.125 47.0625 C49.87447519 51.55587254 45.76138126 53.15034423 40.5625 54.75 C31.54409838 55.62984406 24.51047734 54.9917055 17.1875 49.25 C12.82220147 45.15379521 11.13318464 41.58499281 10.828125 35.6640625 C10.8141203 32.4359803 10.86905332 29.22516827 11 26 C9.02 26.33 7.04 26.66 5 27 C5.02094727 27.67579102 5.04189453 28.35158203 5.06347656 29.04785156 C5.14671643 32.11508254 5.19868466 35.18207582 5.25 38.25 C5.30027344 39.84521484 5.30027344 39.84521484 5.3515625 41.47265625 C5.36445313 42.49746094 5.37734375 43.52226562 5.390625 44.578125 C5.41157227 45.52075195 5.43251953 46.46337891 5.45410156 47.43457031 C4.86630367 50.75531241 3.58947078 51.91621711 1 54 C-1.90784881 54.70882303 -3.942539 54.33971789 -7 54 C-9.35858344 52.5544166 -9.82827508 51.62722222 -10.55078125 48.98828125 C-10.93699267 46.41913574 -11.08769185 44.05044844 -11.140625 41.4609375 C-11.15996094 40.63335937 -11.17929687 39.80578125 -11.19921875 38.953125 C-11.2332221 37.22680112 -11.25131367 35.50009428 -11.25390625 33.7734375 C-11.32394109 31.41436908 -11.42557988 29.29018303 -12 27 C-14.35955273 24.98690973 -14.35955273 24.98690973 -17 24 C-18 21.625 -18 21.625 -18 19 C-16.8125 16.25 -16.8125 16.25 -15 14 C-12.88671875 13.359375 -12.88671875 13.359375 -11 13 C-10.97421875 12.39671875 -10.9484375 11.7934375 -10.921875 11.171875 C-10.65006239 7.34178829 -10.45428666 4.68984271 -8.3125 1.4375 C-5.20824383 -0.49217275 -3.59599652 -0.66048916 0 0 Z M30 25 C29.67 25.66 29.34 26.32 29 27 C31.64 27 34.28 27 37 27 C36.67 26.34 36.34 25.68 36 25 C34.02 25 32.04 25 30 25 Z M28 38 C28.99 39.485 28.99 39.485 30 41 C34.85000134 41.88614956 39.61905865 41.26113102 44 39 C44 38.67 44 38.34 44 38 C38.72 38 33.44 38 28 38 Z " fill="#FDFAF6" transform="translate(396,131)"/>
<path d="M0 0 C20.79 0 41.58 0 63 0 C63 6.27 63 12.54 63 19 C56.4 19 49.8 19 43 19 C43 36.49 43 53.98 43 72 C35.41 72 27.82 72 20 72 C20 54.51 20 37.02 20 19 C13.4 19 6.8 19 0 19 C0 12.73 0 6.46 0 0 Z " fill="#52934C" transform="translate(428,54)"/>
<path d="M0 0 C5.49608871 4.32670813 9.73552469 9.1332256 14.08203125 14.609375 C15.9337932 17.00649095 15.9337932 17.00649095 18 19 C18.47179687 18.18595703 18.47179687 18.18595703 18.953125 17.35546875 C19.38109375 16.64003906 19.8090625 15.92460938 20.25 15.1875 C20.66765625 14.47980469 21.0853125 13.77210937 21.515625 13.04296875 C23.20397533 10.71926554 24.53455688 9.48832315 27 8 C29.94866943 7.63923645 29.94866943 7.63923645 33.42089844 7.65942383 C35.37246857 7.65976372 35.37246857 7.65976372 37.36346436 7.66011047 C38.77877142 7.67542933 40.19407495 7.6910773 41.609375 7.70703125 C43.06096966 7.71262893 44.51257 7.71689822 45.96417236 7.71989441 C49.77833804 7.7313298 53.59215911 7.76078535 57.40618896 7.79400635 C61.30069314 7.82473562 65.19525319 7.83840583 69.08984375 7.85351562 C76.72671933 7.88565664 84.36331131 7.93683676 92 8 C92 10.31 92 12.62 92 15 C91.24244919 15.00586624 90.48489838 15.01173248 89.70439148 15.01777649 C82.5677729 15.07566238 75.4315051 15.1477147 68.29519939 15.23571491 C64.62626526 15.28045714 60.95744315 15.31970434 57.28833008 15.34643555 C53.74789938 15.37243074 50.20789888 15.41280517 46.66773415 15.46318626 C44.65868965 15.48800978 42.64947883 15.49790981 40.64030457 15.50764465 C38.80874565 15.53733589 38.80874565 15.53733589 36.94018555 15.56762695 C35.86318893 15.57873001 34.78619232 15.58983307 33.67655945 15.60127258 C30.99534045 15.79589323 30.99534045 15.79589323 29.14826965 17.30436707 C27.24325767 20.11747028 27.70198723 22.72185958 28 26 C30.70163572 28.70163572 32.13782364 28.27292903 35.91845703 28.31884766 C37.80624878 28.34893921 37.80624878 28.34893921 39.73217773 28.37963867 C41.07405375 28.39137236 42.41593204 28.40284901 43.7578125 28.4140625 C45.58300415 28.44052856 45.58300415 28.44052856 47.44506836 28.4675293 C52.00490937 28.5307541 56.56497509 28.57683153 61.125 28.625 C71.31375 28.74875 81.5025 28.8725 92 29 C92 50.78 92 72.56 92 95 C85.4 95 78.8 95 72 95 C72.12761719 96.73765625 72.25523437 98.4753125 72.38671875 100.265625 C73.45126515 120.88020025 73.45126515 120.88020025 68.52294922 126.5612793 C66.109408 128.83562431 63.57464641 130.90809979 61 133 C59.47410373 134.7733389 57.99295922 136.58631748 56.5625 138.4375 C50.18418662 146.35858232 43.24205849 153.86115374 36 161 C34.94764 157.52679565 34.8358804 154.28117567 34.77539062 150.66186523 C34.75287231 149.37630234 34.730354 148.09073944 34.70715332 146.76622009 C34.6310339 140.87905509 34.57845194 134.99176959 34.54003906 129.10424805 C34.51782141 126.00504726 34.47613385 122.90706165 34.41699219 119.80834961 C34.34541275 116.04937229 34.30913666 112.29153179 34.29692078 108.53190804 C34.28660171 107.10903119 34.26437397 105.68618301 34.22932434 104.26370049 C33.99237717 94.1186237 35.68599058 87.96342289 42 80 C42.99957514 78.62919063 43.99740444 77.25710339 44.9921875 75.8828125 C45.95019427 74.62796545 46.91114595 73.37536133 47.875 72.125 C48.90888446 70.7562137 49.94141867 69.38640656 50.97265625 68.015625 C52.45735065 66.04486711 53.94294274 64.07499064 55.43701172 62.11132812 C56.74693281 60.37844569 58.03238124 58.62996009 59.3125 56.875 C60.05113281 55.88242188 60.78976563 54.88984375 61.55078125 53.8671875 C63.25737952 51.05285194 63.25737952 51.05285194 62.91796875 47.7578125 C62.21328293 44.69854482 62.21328293 44.69854482 59 43 C56.1629812 42.1538777 56.1629812 42.1538777 53 43 C50.33553062 45.39547576 48.33627503 48.22526378 46.25 51.125 C45.64091797 51.9401709 45.03183594 52.7553418 44.40429688 53.59521484 C42.58076348 56.04816447 40.78628566 58.5198344 39 61 C38.49791016 61.69222656 37.99582031 62.38445312 37.47851562 63.09765625 C35.39085448 65.98020093 33.32475047 68.8749157 31.28125 71.7890625 C29 75 29 75 27.49301147 76.53622437 C21.64795111 82.90360114 22.13736735 89.76314782 22.1953125 98 C22.18404698 99.44590456 22.17015964 100.89179084 22.15377808 102.33764648 C22.11790204 106.11894014 22.11734556 109.89942263 22.12445068 113.68084717 C22.12536692 117.54909565 22.09245807 121.41704548 22.0625 125.28515625 C22.00879051 132.85687848 21.99243725 140.42806453 22 148 C15.93503712 145.67225016 15.93503712 145.67225016 14 143 C13.67871094 140.85864258 13.67871094 140.85864258 13.734375 138.39453125 C13.73566406 137.49702148 13.73695313 136.59951172 13.73828125 135.67480469 C13.74214844 134.73024414 13.74601562 133.78568359 13.75 132.8125 C13.81504137 124.41226782 13.81504137 124.41226782 10 117.25 C8.69788985 116.12933143 7.36207463 115.04696781 6 114 C4.48407216 112.5160988 2.98466899 111.01517589 1.5 109.5 C0.736875 108.7471875 -0.02625 107.994375 -0.8125 107.21875 C-3.39766811 104.59665092 -5.78130346 101.84127795 -8.171875 99.04296875 C-10.9561592 95.93147166 -13.96781435 93.06049922 -16.984375 90.17578125 C-21.04399063 85.79359926 -22.37527224 82.52989555 -22.41992188 76.54492188 C-22.43583374 75.26008911 -22.45174561 73.97525635 -22.46813965 72.65148926 C-22.46940682 71.2572434 -22.46958383 69.86299618 -22.46875 68.46875 C-22.47585561 67.03055526 -22.4835552 65.59236334 -22.49182129 64.1541748 C-22.50524587 61.14485789 -22.50684362 58.13580326 -22.50097656 55.12646484 C-22.4950754 51.27595544 -22.52569625 47.42670476 -22.56609344 43.5764389 C-22.59197808 40.60806536 -22.5948474 37.63999489 -22.59120178 34.67152405 C-22.59289167 33.25217011 -22.6025218 31.83280198 -22.62034607 30.41355896 C-22.6425493 28.42752206 -22.6296188 26.44118705 -22.61523438 24.45507812 C-22.61728882 23.32654419 -22.61934326 22.19801025 -22.62145996 21.03527832 C-21.8136351 17.08977349 -20.01289283 15.56615098 -17 13 C-11.65546274 17.20740167 -7.55585161 21.82825391 -3.3203125 27.140625 C-1.12530146 29.8455881 1.1502746 32.42922029 3.5 35 C8.98750294 41.02568186 14.14997522 47.31632994 19.13671875 53.76171875 C20.8042892 56.06934909 20.8042892 56.06934909 23 57 C24.37342831 57.0689472 25.75002102 57.08467708 27.125 57.0625 C29.043125 57.0315625 29.043125 57.0315625 31 57 C32.22714756 51.92743403 32.22714756 51.92743403 30.40234375 47.20703125 C27.77569121 43.5427879 24.79966688 40.18364392 21.8125 36.8125 C17.19748621 31.54831876 12.68415399 26.22596666 8.27734375 20.78515625 C3.92490561 15.46219159 -0.54528681 10.23741046 -5 5 C-3.35 3.35 -1.7 1.7 0 0 Z M0 3 C0 8.05370737 2.03626907 9.82984999 5.25 13.375 C6.35691346 14.63138477 7.46368022 15.8878988 8.5703125 17.14453125 C9.14040039 17.78471191 9.71048828 18.42489258 10.29785156 19.08447266 C14.94848766 24.31810587 19.4934018 29.64218902 24 35 C24.4940332 35.58233398 24.98806641 36.16466797 25.49707031 36.76464844 C26.93464355 38.47360513 28.34542303 40.20137813 29.75 41.9375 C30.56984375 42.93652344 31.3896875 43.93554688 32.234375 44.96484375 C34.36936795 48.63495331 34.50425057 50.81768641 34 55 C31.63334052 58.27155869 30.10073968 59.70646942 26.1875 60.75 C18.19563039 58.86956009 13.15217061 50.94346665 8.28515625 44.82421875 C6.10408853 42.12864274 3.83908559 39.55875624 1.5 37 C-2.46711094 32.65143608 -6.18939221 28.14403976 -9.859375 23.54296875 C-12.10659805 20.87336619 -14.50099504 18.43347161 -17 16 C-17.99 16.495 -17.99 16.495 -19 17 C-19.25612973 25.54531343 -19.45093424 34.08899567 -19.56993389 42.6372118 C-19.62708333 46.60775661 -19.70442834 50.57565579 -19.82983398 54.54467773 C-19.95034901 58.38342959 -20.01532154 62.21965694 -20.04364967 66.06015587 C-20.06380375 67.51678895 -20.10316459 68.97330066 -20.16303062 70.42884254 C-20.53609708 79.43195705 -20.53609708 79.43195705 -16.60757446 87.27450562 C-13.9427671 90.09239233 -10.98396365 92.52612074 -8 95 C-6.73922346 96.36734923 -5.50153596 97.75732697 -4.3125 99.1875 C-1.37113931 102.63429737 1.7801133 105.79909986 5.0078125 108.9765625 C7.64865452 111.6588295 10.10671667 114.47807388 12.5546875 117.3359375 C13.65402798 118.60166464 14.8145434 119.8145434 16 121 C16.31884766 123.24658203 16.31884766 123.24658203 16.4140625 126.0078125 C16.47207031 127.48701172 16.47207031 127.48701172 16.53125 128.99609375 C16.5621875 130.02863281 16.593125 131.06117188 16.625 132.125 C16.68300781 133.68541016 16.68300781 133.68541016 16.7421875 135.27734375 C16.83664766 137.85138311 16.92221214 140.42541155 17 143 C17.66 143 18.32 143 19 143 C18.97215927 141.93576057 18.97215927 141.93576057 18.9437561 140.85002136 C18.77935719 134.07173027 18.68560484 127.29549158 18.66578102 120.51534557 C18.65324609 117.031039 18.61603871 113.55111113 18.51660156 110.06811523 C18.0168065 91.78764019 19.43355767 79.45700349 32.3182373 65.81570435 C34.53439049 63.42304872 36.39243308 60.8380488 38.25390625 58.1640625 C38.81787109 57.390625 39.38183594 56.6171875 39.96289062 55.8203125 C41.06751998 54.30431324 42.16888138 52.78592931 43.26757812 51.265625 C51.25596854 40.34101174 51.25596854 40.34101174 55.09765625 39.58984375 C58.40459268 40.17496769 60.64808804 40.77125723 63.5 42.625 C65.62471627 45.9891341 65.40051398 48.05554415 65 52 C63.7537123 54.67786419 62.07650908 56.95208785 60.3125 59.3125 C59.82716797 59.98893555 59.34183594 60.66537109 58.84179688 61.36230469 C57.79581207 62.81594517 56.74231094 64.26420082 55.68212891 65.70751953 C53.93113432 68.09385322 52.20370212 70.49589847 50.48046875 72.90234375 C41.40704631 85.55369768 41.40704631 85.55369768 39.43632507 87.71447754 C37.52375012 90.75782273 37.63860123 92.83941164 37.65942383 96.42089844 C37.65965042 97.72194519 37.65987701 99.02299194 37.66011047 100.36346436 C37.67542933 101.77877142 37.6910773 103.19407495 37.70703125 104.609375 C37.71262893 106.06096966 37.71689822 107.51257 37.71989441 108.96417236 C37.7313298 112.77833804 37.76078535 116.59215911 37.79400635 120.40618896 C37.82473562 124.30069314 37.83840583 128.19525319 37.85351562 132.08984375 C37.88565664 139.72671933 37.93683676 147.36331131 38 155 C46.05165121 146.98028644 53.642325 138.64464823 60.734375 129.765625 C63 127 63 127 64.80688477 125.3671875 C69.05153102 121.29799307 70.46917784 118.46484712 70.68359375 112.53125 C70.63748947 110.18651812 70.55461296 107.84225911 70.4375 105.5 C70.39012695 103.69402344 70.39012695 103.69402344 70.34179688 101.8515625 C70.25980851 98.89998129 70.13426945 95.94966532 70 93 C76.6 93 83.2 93 90 93 C90 72.54 90 52.08 90 31 C70.0600831 30.78991721 70.0600831 30.78991721 50.11987305 30.61206055 C47.62547285 30.57978462 45.13108648 30.54641292 42.63671875 30.51171875 C40.68409119 30.50235291 40.68409119 30.50235291 38.6920166 30.49279785 C36.83486023 30.46288757 36.83486023 30.46288757 34.94018555 30.43237305 C33.32469063 30.41571846 33.32469063 30.41571846 31.67655945 30.39872742 C28.66333452 29.9498469 27.79242978 29.40443978 26 27 C24.6100592 24.2201184 24.81511796 22.0813674 25 19 C26.4 15.3 26.4 15.3 29 14 C30.93971378 13.87994453 32.88343616 13.82266656 34.82666016 13.79467773 C36.65833237 13.7647599 36.65833237 13.7647599 38.52700806 13.73423767 C39.86435823 13.71725344 41.20170975 13.70037463 42.5390625 13.68359375 C43.90384553 13.66302397 45.26862218 13.64202749 46.63339233 13.62062073 C50.22707973 13.56540241 53.8208246 13.51599213 57.41461182 13.46777344 C61.08114746 13.41755663 64.74759956 13.36187151 68.4140625 13.30664062 C75.60930426 13.199062 82.80461546 13.09761643 90 13 C90 12.01 90 11.02 90 10 C82.00265109 9.88402474 74.00565491 9.79524489 66.00767231 9.74093914 C62.29363057 9.71487159 58.58016514 9.67952791 54.86645508 9.62280273 C51.28080287 9.56837786 47.69570409 9.53855808 44.10967064 9.52561378 C42.74329098 9.51639236 41.37694081 9.49838419 40.0107975 9.47134972 C32.78153208 9.05579931 32.78153208 9.05579931 26.0562439 11.11123657 C24.50206948 12.55665971 24.50206948 12.55665971 23 15 C22.67 15.33 22.34 15.66 22 16 C21.76636119 17.84891946 21.58696365 19.70488031 21.4375 21.5625 C21.35371094 22.57441406 21.26992187 23.58632812 21.18359375 24.62890625 C21.09271484 25.80259766 21.09271484 25.80259766 21 27 C14.66453915 19.67198362 8.36845563 12.34819752 2.42578125 4.6953125 C1.72001953 3.85613281 1.72001953 3.85613281 1 3 C0.67 3 0.34 3 0 3 Z " fill="#FCF7F0" transform="translate(147,48)"/>
<path d="M0 0 C7.59 0 15.18 0 23 0 C23 23.76 23 47.52 23 72 C15.41 72 7.82 72 0 72 C0 48.24 0 24.48 0 0 Z " fill="#51934B" transform="translate(401,54)"/>
<path d="M0 0 C0.72493652 -0.01023193 1.44987305 -0.02046387 2.19677734 -0.03100586 C8.1620111 0.06688586 12.33174444 1.55832165 16.75 5.75 C18.3125 8.4375 18.3125 8.4375 18.5 11.5625 C17.3125 14.4375 17.3125 14.4375 14.0625 16.375 C10.17257336 17.47714588 9.07466005 17.39991304 5.3125 16.4375 C-1.28841352 16.11418855 -1.28841352 16.11418855 -7.6875 17.4375 C-10.79083933 23.06538125 -11.11951379 28.30029803 -9.6875 34.4375 C-7.9264807 38.16600586 -7.9264807 38.16600586 -4.6875 40.4375 C-3.16922869 40.53508265 -1.64639655 40.5672618 -0.125 40.5625 C0.76574219 40.55992187 1.65648437 40.55734375 2.57421875 40.5546875 C5.17187412 40.44351823 7.62417619 40.10409326 10.1875 39.6875 C13.383949 39.2971372 14.00938038 39.25267097 16.875 41 C18.75196279 44.18267603 18.98116442 45.79699372 18.3125 49.4375 C15.37330479 53.13248827 12.78123838 55.04831861 8.3125 56.4375 C-0.65214058 57.21155531 -9.99713463 57.79111036 -17.6875 52.4375 C-24.31834445 46.83812024 -28.12460376 40.39055416 -28.9453125 31.7109375 C-29.29518545 22.68421535 -27.75732187 14.33939833 -21.5 7.5 C-14.80080733 1.6575175 -8.74176705 0.09629968 0 0 Z " fill="#E09433" transform="translate(273.6875,129.5625)"/>
<path d="M0 0 C4.29512277 3.51419136 7.72103321 7.88043396 8.71875 13.40625 C9.16675 19.67825 9.16675 19.67825 7.21875 22.84375 C6.72375 23.359375 6.22875 23.875 5.71875 24.40625 C6.37875 25.06625 7.03875 25.72625 7.71875 26.40625 C7.64494421 30.39176254 7.40253693 32.63698971 4.71875 35.65625 C-2.70765861 39.98832169 -10.15508914 41.71682173 -18.63671875 39.90234375 C-23.78637062 38.39281431 -27.60055783 36.42933213 -31.28125 32.40625 C-34.62779204 26.26571024 -36.48853972 20.41500571 -34.80859375 13.4453125 C-32.70775314 6.87861312 -29.03478624 2.14828313 -23.21875 -1.53125 C-15.97647717 -4.10628034 -6.66950318 -3.95648494 0 0 Z M-16.28125 10.40625 C-16.61125 11.06625 -16.94125 11.72625 -17.28125 12.40625 C-14.31125 12.40625 -11.34125 12.40625 -8.28125 12.40625 C-10.17880144 10.05651182 -10.17880144 10.05651182 -13.40625 10.28125 C-14.355 10.3225 -15.30375 10.36375 -16.28125 10.40625 Z M-18.28125 23.40625 C-15.52791281 26.80756554 -15.52791281 26.80756554 -11.40625 26.71875 C-8.01150484 26.59974602 -5.3486642 25.9399571 -2.28125 24.40625 C-2.28125 24.07625 -2.28125 23.74625 -2.28125 23.40625 C-7.56125 23.40625 -12.84125 23.40625 -18.28125 23.40625 Z " fill="#E09433" transform="translate(326.28125,145.59375)"/>
<path d="M0 0 C3.3923737 0.49127363 5.71365302 0.48740005 9 -0.4375 C14.99537545 -1.01376529 19.65820348 -0.47499214 25 2.5625 C31.03419021 8.75548469 30.21118458 15.30509511 30.25 23.5 C30.270625 24.58474609 30.29125 25.66949219 30.3125 26.78710938 C30.32023437 28.36008789 30.32023437 28.36008789 30.328125 29.96484375 C30.34214355 31.39558228 30.34214355 31.39558228 30.35644531 32.85522461 C29.89505405 36.35958608 28.51508678 39.04741322 26 41.5625 C18.66666667 42.03561828 18.66666667 42.03561828 16.0625 40.1875 C14.04610839 37.10360695 13.82462713 35.00280547 13.68359375 31.3359375 C13.64169922 30.3046875 13.59980469 29.2734375 13.55664062 28.2109375 C13.51732422 27.13070312 13.47800781 26.05046875 13.4375 24.9375 C13.39431641 23.84953125 13.35113281 22.7615625 13.30664062 21.640625 C13.2003547 18.9480483 13.09831943 16.25537747 13 13.5625 C10.02934491 13.90477572 10.02934491 13.90477572 7 14.5625 C5.83459776 16.89330447 5.83139831 18.39502953 5.75390625 20.9921875 C5.72103516 21.87003906 5.68816406 22.74789062 5.65429688 23.65234375 C5.59336029 25.50118555 5.53603702 27.35015015 5.48242188 29.19921875 C5.44826172 30.07964844 5.41410156 30.96007812 5.37890625 31.8671875 C5.3538501 32.67140137 5.32879395 33.47561523 5.30297852 34.30419922 C4.96925113 36.79169179 4.32306953 38.43725907 3 40.5625 C-0.17821535 42.15160767 -3.53939729 41.96670974 -7 41.5625 C-9.67431489 39.75086733 -9.95920359 38.68488923 -11 35.5625 C-11.20434467 31.45019228 -11.18580189 27.33771955 -11.18530273 23.22070312 C-11.18748475 21.20160706 -11.20564123 19.18306164 -11.22460938 17.1640625 C-11.22654297 15.8853125 -11.22847656 14.6065625 -11.23046875 13.2890625 C-11.23457764 12.11939941 -11.23868652 10.94973633 -11.24291992 9.74462891 C-11.00053326 6.5694854 -10.43601273 4.38954039 -9 1.5625 C-5.93448061 -0.70360593 -3.67746649 -0.54377172 0 0 Z " fill="#E09433" transform="translate(348,143.4375)"/>
<path d="M0 0 C4.71237559 2.68052134 7.95035893 6.16357679 9.6875 11.375 C9.81531786 14.04894964 9.73141871 16.69595857 9.6875 19.375 C7.02571779 20.7058911 5.00010604 20.48768993 2.0234375 20.47265625 C0.90195312 20.46943359 -0.21953125 20.46621094 -1.375 20.46289062 C-2.550625 20.45451172 -3.72625 20.44613281 -4.9375 20.4375 C-6.12085938 20.43298828 -7.30421875 20.42847656 -8.5234375 20.42382812 C-11.45317507 20.41201467 -14.38281272 20.39554258 -17.3125 20.375 C-16.09777797 24.04617431 -16.09777797 24.04617431 -13.46484375 26.703125 C-8.88339026 28.13327019 -3.91740265 27.03155109 0.4375 25.25 C3.22959375 24.16418576 4.85221897 24.5649197 7.6875 25.375 C8.1825 27.85 8.1825 27.85 8.6875 30.375 C1.69839764 36.19925197 -3.47196071 36.99437727 -12.375 36.75 C-19.31421737 36.08912215 -22.41832568 33.60065483 -26.8125 28.4375 C-29.54190918 22.90557248 -29.00795898 16.34017395 -28.3125 10.375 C-26.03965164 5.19290573 -22.1274756 2.17908092 -17.3125 -0.625 C-11.58405171 -2.53448276 -5.53687495 -2.53685715 0 0 Z M-12.3125 9.375 C-12.6425 10.035 -12.9725 10.695 -13.3125 11.375 C-10.6725 11.375 -8.0325 11.375 -5.3125 11.375 C-5.6425 10.715 -5.9725 10.055 -6.3125 9.375 C-8.2925 9.375 -10.2725 9.375 -12.3125 9.375 Z " fill="#E09433" transform="translate(438.3125,146.625)"/>
<path d="M0 0 C1.98 0.99 1.98 0.99 4 2 C4 2.66 4 3.32 4 4 C9.28 4 14.56 4 20 4 C20.33 2.68 20.66 1.36 21 0 C21.99 0.33 22.98 0.66 24 1 C24.33 1.99 24.66 2.98 25 4 C37.87 4 50.74 4 64 4 C64 2.68 64 1.36 64 0 C65.9375 0.3125 65.9375 0.3125 68 1 C68.495 2.485 68.495 2.485 69 4 C69.99 3.67 70.98 3.34 72 3 C74.80565073 3.09003641 77.57727205 3.23681788 80.375 3.4375 C87.17285924 3.88159848 93.87786113 4.07360078 100.69140625 3.9375 C103 4 103 4 104 5 C104.07179964 6.51928038 104.08392007 8.04167482 104.0625 9.5625 C104.05347656 10.38878906 104.04445313 11.21507812 104.03515625 12.06640625 C104.02355469 12.70449219 104.01195312 13.34257812 104 14 C100.20839703 14.05786668 96.41690689 14.09355054 92.625 14.125 C91.00464844 14.15013672 91.00464844 14.15013672 89.3515625 14.17578125 C88.3203125 14.18222656 87.2890625 14.18867188 86.2265625 14.1953125 C84.79691162 14.21102295 84.79691162 14.21102295 83.33837891 14.22705078 C81 14 81 14 79 12 C78.67 12.66 78.34 13.32 78 14 C77.34773438 13.97679687 76.69546875 13.95359375 76.0234375 13.9296875 C70.82862513 13.82241999 66.92290204 14.2098538 62 16 C57.52224011 16.37314666 54.1847246 15.5941808 50 14 C50 12.02 50 10.04 50 8 C49.34 8 48.68 8 48 8 C48 9.98 48 11.96 48 14 C34.66666667 14 21.33333333 14 8 14 C6.205625 14.0309375 6.205625 14.0309375 4.375 14.0625 C1 14 1 14 0 13 C-0.07258946 10.81360547 -0.08373783 8.62499611 -0.0625 6.4375 C-0.05347656 5.23996094 -0.04445312 4.04242188 -0.03515625 2.80859375 C-0.02355469 1.88175781 -0.01195312 0.95492187 0 0 Z M72 7 C72 10 72 10 72 10 Z M4 8 C5 10 5 10 5 10 Z M38 8 C38 8.66 38 9.32 38 10 C38.66 10 39.32 10 40 10 C40 9.34 40 8.68 40 8 C39.34 8 38.68 8 38 8 Z " fill="#575555" transform="translate(221,193)"/>
<path d="M0 0 C21.12 0 42.24 0 64 0 C64 2.31 64 4.62 64 7 C63.24244919 7.00586624 62.48489838 7.01173248 61.70439148 7.01777649 C54.5677729 7.07566238 47.4315051 7.1477147 40.29519939 7.23571491 C36.62626526 7.28045714 32.95744315 7.31970434 29.28833008 7.34643555 C25.74789938 7.37243074 22.20789888 7.41280517 18.66773415 7.46318626 C16.65868965 7.48800978 14.64947883 7.49790981 12.64030457 7.50764465 C10.80874565 7.53733589 10.80874565 7.53733589 8.94018555 7.56762695 C7.86318893 7.57873001 6.78619232 7.58983307 5.67655945 7.60127258 C2.99534045 7.79589323 2.99534045 7.79589323 1.14826965 9.30436707 C-0.75674233 12.11747028 -0.29801277 14.72185958 0 18 C2.70163572 20.70163572 4.13782364 20.27292903 7.91845703 20.31884766 C9.80624878 20.34893921 9.80624878 20.34893921 11.73217773 20.37963867 C13.07405375 20.39137236 14.41593204 20.40284901 15.7578125 20.4140625 C17.58300415 20.44052856 17.58300415 20.44052856 19.44506836 20.4675293 C24.00490937 20.5307541 28.56497509 20.57683153 33.125 20.625 C43.31375 20.74875 53.5025 20.8725 64 21 C64 42.78 64 64.56 64 87 C57.4 87 50.8 87 44 87 C44.12761719 88.73765625 44.25523437 90.4753125 44.38671875 92.265625 C45.45126515 112.88020025 45.45126515 112.88020025 40.52294922 118.5612793 C38.109408 120.83562431 35.57464641 122.90809979 33 125 C31.47410373 126.7733389 29.99295922 128.58631748 28.5625 130.4375 C22.18418662 138.35858232 15.24205849 145.86115374 8 153 C6.91674635 149.48656002 6.87937249 146.24379728 6.88647461 142.57910156 C6.88655014 141.27805481 6.88662567 139.97700806 6.88670349 138.63653564 C6.89180976 137.22123171 6.89702575 135.80592816 6.90234375 134.390625 C6.90420965 132.93902637 6.90563274 131.48742712 6.90663147 130.03582764 C6.91044312 126.22180431 6.92026185 122.40781927 6.93133545 118.59381104 C6.94157865 114.69926471 6.94613532 110.80471217 6.95117188 106.91015625 C6.96188535 99.27342007 6.97894551 91.63671541 7 84 C7.99 83.505 7.99 83.505 9 83 C9 104.12 9 125.24 9 147 C17.04197715 138.95802285 24.63718186 130.65108728 31.734375 121.765625 C34 119 34 119 35.78930664 117.3671875 C41.03866739 112.29893137 41.82906346 108.25807604 41.97070312 101.0546875 C41.95974609 99.88164062 41.94878906 98.70859375 41.9375 97.5 C41.95361328 96.29601562 41.96972656 95.09203125 41.98632812 93.8515625 C42.02145093 90.9012472 42.01492298 87.95048661 42 85 C48.6 85 55.2 85 62 85 C62 64.54 62 44.08 62 23 C42.10476331 23.15827545 42.10476331 23.15827545 22.20996094 23.36035156 C19.7181059 23.37203263 17.22624326 23.38222582 14.734375 23.390625 C13.43773926 23.41108887 12.14110352 23.43155273 10.80517578 23.45263672 C8.94820068 23.45336182 8.94820068 23.45336182 7.05371094 23.45410156 C5.44154694 23.46742523 5.44154694 23.46742523 3.79681396 23.48101807 C0.31700116 22.88253249 -0.81981189 21.71415365 -3 19 C-4.41000664 16.17998673 -4.24548451 14.12992745 -4 11 C-1.73529412 6.36764706 -1.73529412 6.36764706 1 5 C2.94044277 4.90871707 4.8840756 4.88247752 6.82666016 4.88647461 C8.04777496 4.88655014 9.26888977 4.88662567 10.52700806 4.88670349 C11.86435995 4.89181048 13.20171143 4.89702648 14.5390625 4.90234375 C15.90383859 4.9042086 17.26861534 4.90563219 18.63339233 4.90663147 C22.22715093 4.91045137 25.82086917 4.92027717 29.41461182 4.93133545 C33.08108982 4.94156089 36.74757435 4.94613152 40.4140625 4.95117188 C47.60939341 4.9618999 54.80469105 4.97897001 62 5 C62 4.01 62 3.02 62 2 C41.21 2 20.42 2 -1 2 C-0.67 1.34 -0.34 0.68 0 0 Z " fill="#FEFDFB" transform="translate(175,56)"/>
<path d="M0 0 C0 3.3 0 6.6 0 10 C0.66 10 1.32 10 2 10 C2 6.7 2 3.4 2 0 C3.32 0.33 4.64 0.66 6 1 C6.33 1.99 6.66 2.98 7 4 C9.97 4 12.94 4 16 4 C16 2.68 16 1.36 16 0 C17.65 0 19.3 0 21 0 C21 1.32 21 2.64 21 4 C22.94603274 4.59070014 22.94603274 4.59070014 25 5 C25.33 4.67 25.66 4.34 26 4 C28.21855264 3.91216458 30.43988496 3.89305391 32.66015625 3.90234375 C33.65685585 3.90446617 33.65685585 3.90446617 34.6736908 3.90663147 C36.80333899 3.91224482 38.93288339 3.92479946 41.0625 3.9375 C42.50325369 3.94251329 43.94400903 3.94707649 45.38476562 3.95117188 C48.92321102 3.96221855 52.46159539 3.97949208 56 4 C56 2.68 56 1.36 56 0 C62.75 0.875 62.75 0.875 65 2 C65 2.66 65 3.32 65 4 C66.65 4 68.3 4 70 4 C70 5.32 70 6.64 70 8 C70.66 8 71.32 8 72 8 C72 6.68 72 5.36 72 4 C73.32 4 74.64 4 76 4 C76 7.63 76 11.26 76 15 C71.03751973 17.48124013 66.00818309 15.45692599 61 14 C58.29113059 13.83201738 58.29113059 13.83201738 56 14 C55.34 14 54.68 14 54 14 C53.23880859 14.01047363 52.47761719 14.02094727 51.69335938 14.03173828 C48.6289452 14.07322024 45.56458421 14.09918521 42.5 14.125 C41.42878906 14.14175781 40.35757813 14.15851563 39.25390625 14.17578125 C38.23167969 14.18222656 37.20945312 14.18867188 36.15625 14.1953125 C35.21587891 14.20578613 34.27550781 14.21625977 33.30664062 14.22705078 C31 14 31 14 29 12 C28.34 12.66 27.68 13.32 27 14 C25.68 14 24.36 14 23 14 C22.67 13.34 22.34 12.68 22 12 C21.67 12.66 21.34 13.32 21 14 C17.04172765 14.05785647 13.0835633 14.09354717 9.125 14.125 C7.99707031 14.14175781 6.86914062 14.15851563 5.70703125 14.17578125 C4.09248047 14.18544922 4.09248047 14.18544922 2.4453125 14.1953125 C0.95281982 14.21102295 0.95281982 14.21102295 -0.56982422 14.22705078 C-3 14 -3 14 -5 12 C-5.1953125 9.3984375 -5.1953125 9.3984375 -5.125 6.375 C-5.10695313 5.37210938 -5.08890625 4.36921875 -5.0703125 3.3359375 C-5.04710937 2.56507813 -5.02390625 1.79421875 -5 1 C-2 0 -2 0 0 0 Z M45 7 C44.67 8.65 44.34 10.3 44 12 C44.66 11.67 45.32 11.34 46 11 C45.67 9.68 45.34 8.36 45 7 Z M65 8 C66 10 66 10 66 10 Z " fill="#504E4E" transform="translate(418,193)"/>
<path d="M0 0 C2.34009094 0.30828422 2.34009094 0.30828422 5.15625 -0.84375 C9.57163659 -1.33434851 11.48103359 -1.32202829 15.15625 1.28125 C17.15625 4.15625 17.15625 4.15625 17.34375 7.21875 C15.73544799 11.19718129 13.93637703 12.19618414 10.15625 14.15625 C7.83121728 14.85131241 5.49859726 15.52198019 3.15625 16.15625 C3.20845703 18.12658203 3.20845703 18.12658203 3.26171875 20.13671875 C3.28986466 21.87238301 3.31716396 23.60806115 3.34375 25.34375 C3.36888672 26.20806641 3.39402344 27.07238281 3.41992188 27.96289062 C3.47647752 32.88323209 3.34901261 36.14318063 0.15625 40.15625 C-0.84375 41.15625 -0.84375 41.15625 -4.71875 41.40625 C-8.5494138 41.36513375 -8.5494138 41.36513375 -10.78125 39.78125 C-14.03956535 34.79794417 -13.06840293 28.80507784 -13.08398438 23.03540039 C-13.0936669 20.86240017 -13.12467826 18.69035537 -13.15625 16.51757812 C-13.16278269 15.13021394 -13.16803212 13.742843 -13.171875 12.35546875 C-13.1812207 11.09565186 -13.19056641 9.83583496 -13.20019531 8.5378418 C-12.8161332 4.89424977 -12.10110774 3.01695834 -9.84375 0.15625 C-6.18782132 -1.06239289 -3.74592394 -0.54940218 0 0 Z " fill="#E09535" transform="translate(465.84375,143.84375)"/>
<path d="M0 0 C7.51953125 -0.390625 7.51953125 -0.390625 10 0 C11.0260734 1.31337396 12.02727325 2.64664105 13 4 C15.0488648 4.48057715 15.0488648 4.48057715 17.1875 4.25 C19.0746875 4.12625 19.0746875 4.12625 21 4 C21.33 2.68 21.66 1.36 22 0 C23.32 0 24.64 0 26 0 C26.33 1.32 26.66 2.64 27 4 C29.97 4 32.94 4 36 4 C36 2.68 36 1.36 36 0 C38.475 0.99 38.475 0.99 41 2 C41 2.66 41 3.32 41 4 C42.65 4 44.3 4 46 4 C46 2.68 46 1.36 46 0 C48.475 0.495 48.475 0.495 51 1 C51 1.99 51 2.98 51 4 C55.95 4 60.9 4 66 4 C66 3.01 66 2.02 66 1 C67.65 1.33 69.3 1.66 71 2 C71 2.66 71 3.32 71 4 C71.66 4 72.32 4 73 4 C72.34 5.98 71.68 7.96 71 10 C71.99 10.33 72.98 10.66 74 11 C73.34 11.99 72.68 12.98 72 14 C69.40946554 14.26731234 67.06074307 14.34832091 64.47265625 14.29296875 C63.72793564 14.28872391 62.98321503 14.28447906 62.21592712 14.28010559 C59.83108618 14.26329346 57.44708555 14.22567065 55.0625 14.1875 C53.45899668 14.17245351 51.85548001 14.15876504 50.25195312 14.14648438 C47.31110682 14.12195183 44.37057668 14.08985296 41.42993164 14.04760742 C38.07393049 14.00102615 34.73092139 14.00463929 31.375 14.0625 C28 14 28 14 27 13 C26.01 14.485 26.01 14.485 25 16 C22.375 16.1875 22.375 16.1875 20 16 C20 15.67 20 15.34 20 15 C15.71 14.67 11.42 14.34 7 14 C7 12.35 7 10.7 7 9 C6.34 9 5.68 9 5 9 C5 10.65 5 12.3 5 14 C3.35 14 1.7 14 0 14 C0 9.38 0 4.76 0 0 Z M41 8 C42 10 42 10 42 10 Z " fill="#323030" transform="translate(333,193)"/>
<path d="M0 0 C8.188125 -0.0825 16.37625 -0.165 24.8125 -0.25 C28.65612183 -0.30462402 28.65612183 -0.30462402 32.57739258 -0.36035156 C34.64143032 -0.37204986 36.70547739 -0.38223897 38.76953125 -0.390625 C39.81443726 -0.41108887 40.85934326 -0.43155273 41.93591309 -0.45263672 C50.08027658 -0.45644383 58.31975108 0.67879976 64.5625 6.3125 C67.59756906 11.98675955 68.34293089 17.64603104 68.3125 24 C68.32861328 24.67289063 68.34472656 25.34578125 68.36132812 26.0390625 C68.36765212 32.5907219 66.7550588 37.08167992 62.3125 41.9375 C61.549375 42.618125 60.78625 43.29875 60 44 C60.969375 44.763125 61.93875 45.52625 62.9375 46.3125 C65.42086332 48.26748815 65.9521672 48.85650159 67 52 C67.08106686 53.55421729 67.10756898 55.11167027 67.09765625 56.66796875 C67.09515869 57.47258545 67.09266113 58.27720215 67.09008789 59.10620117 C67.08098389 60.12302979 67.07187988 61.1398584 67.0625 62.1875 C67.041875 65.425625 67.02125 68.66375 67 72 C59.41 72 51.82 72 44 72 C43.8046875 68.45182292 43.609375 64.90364583 43.4140625 61.35546875 C43.23897061 57.87244766 43.23897061 57.87244766 41 55 C39.07558585 54.49468134 39.07558585 54.49468134 36.8671875 54.48828125 C36.14128418 54.45516846 35.41538086 54.42205566 34.66748047 54.38793945 C33.28520264 54.35059692 33.28520264 54.35059692 31.875 54.3125 C28.94625 54.209375 26.0175 54.10625 23 54 C23 59.94 23 65.88 23 72 C15.41 72 7.82 72 0 72 C0 48.24 0 24.48 0 0 Z M2 2 C2 24.11 2 46.22 2 69 C7.94 69 13.88 69 20 69 C20 63.06 20 57.12 20 51 C23.41854428 51.05997446 26.83271199 51.1469887 30.25 51.25 C31.21808594 51.26417969 32.18617188 51.27835938 33.18359375 51.29296875 C40.23602151 51.53615591 40.23602151 51.53615591 43.625 53.59375 C46.46084142 58.55647249 45.7935013 64.42453518 46 70 C52.27 70 58.54 70 65 70 C65.061875 67.298125 65.12375 64.59625 65.1875 61.8125 C65.21481201 60.97050049 65.24212402 60.12850098 65.27026367 59.26098633 C65.32107223 54.66472379 64.96169284 51.74108569 62 48 C58.29301459 45.09452495 55.65754061 44.67505531 51 45 C51 44.34 51 43.68 51 43 C51.59167969 42.84144531 52.18335938 42.68289062 52.79296875 42.51953125 C53.58316406 42.28621094 54.37335938 42.05289063 55.1875 41.8125 C55.96480469 41.59207031 56.74210937 41.37164062 57.54296875 41.14453125 C61.02571217 39.52220403 62.71606536 38.13841368 65 35 C65.70774513 31.33759803 65.6529607 27.78116836 65.5625 24.0625 C65.57893555 22.59780273 65.57893555 22.59780273 65.59570312 21.10351562 C65.53474044 15.10885138 64.97736341 11.55923694 61 7 C54.03969833 1.73274468 46.38970716 1.71737088 38.03515625 1.8046875 C36.65982727 1.80770874 36.65982727 1.80770874 35.25671387 1.81079102 C31.85859109 1.82119013 28.46054008 1.84911235 25.0625 1.875 C13.6465625 1.936875 13.6465625 1.936875 2 2 Z " fill="#F1F6F0" transform="translate(326,54)"/>
<path d="M0 0 C20.79 0 41.58 0 63 0 C63 6.27 63 12.54 63 19 C56.4 19 49.8 19 43 19 C43 36.49 43 53.98 43 72 C35.41 72 27.82 72 20 72 C20 54.51 20 37.02 20 19 C13.4 19 6.8 19 0 19 C0 12.73 0 6.46 0 0 Z M3 2 C3 6.62 3 11.24 3 16 C9.27 16 15.54 16 22 16 C22 33.49 22 50.98 22 69 C27.94 69 33.88 69 40 69 C40 51.51 40 34.02 40 16 C46.93 16 53.86 16 61 16 C61 11.38 61 6.76 61 2 C41.86 2 22.72 2 3 2 Z " fill="#F0F6F0" transform="translate(428,54)"/>
<path d="M0 0 C2.9375 0.875 2.9375 0.875 4.9375 3.875 C5.1328125 6.13671875 5.1328125 6.13671875 5.0625 8.5625 C5.04445313 9.37074219 5.02640625 10.17898437 5.0078125 11.01171875 C4.98460937 11.62660156 4.96140625 12.24148437 4.9375 12.875 C6.6390625 13.0915625 6.6390625 13.0915625 8.375 13.3125 C11.9375 13.875 11.9375 13.875 12.9375 14.875 C13.125 17.3125 13.125 17.3125 12.9375 19.875 C10.9375 21.875 10.9375 21.875 7.8125 22 C6.389375 21.938125 6.389375 21.938125 4.9375 21.875 C4.95321045 22.58108398 4.9689209 23.28716797 4.98510742 24.01464844 C5.04752097 27.21801729 5.08651111 30.42125812 5.125 33.625 C5.15013672 34.73617187 5.17527344 35.84734375 5.20117188 36.9921875 C5.21083984 38.06210938 5.22050781 39.13203125 5.23046875 40.234375 C5.2461792 41.21889648 5.26188965 42.20341797 5.27807617 43.21777344 C4.88715182 46.26782409 3.96907056 47.61613723 1.9375 49.875 C-0.4056213 49.61938677 -2.74093403 49.28229228 -5.0625 48.875 C-6.3933911 46.21321779 -6.17518993 44.18760604 -6.16015625 41.2109375 C-6.15693359 40.08945313 -6.15371094 38.96796875 -6.15039062 37.8125 C-6.14201172 36.636875 -6.13363281 35.46125 -6.125 34.25 C-6.12048828 33.06664062 -6.11597656 31.88328125 -6.11132812 30.6640625 C-6.09951467 27.73432493 -6.08304258 24.80468728 -6.0625 21.875 C-6.84625 21.91625 -7.63 21.9575 -8.4375 22 C-11.0625 21.875 -11.0625 21.875 -13.0625 19.875 C-13.25 17.3125 -13.25 17.3125 -13.0625 14.875 C-12.0625 13.875 -12.0625 13.875 -9 13.8125 C-7.5459375 13.8434375 -7.5459375 13.8434375 -6.0625 13.875 C-6.09730469 13.11574219 -6.13210938 12.35648438 -6.16796875 11.57421875 C-6.19503906 10.58035156 -6.22210938 9.58648437 -6.25 8.5625 C-6.28480469 7.57636719 -6.31960938 6.59023437 -6.35546875 5.57421875 C-6.0625 2.875 -6.0625 2.875 -4.7421875 1.01171875 C-3.0625 -0.125 -3.0625 -0.125 0 0 Z " fill="#E09534" transform="translate(394.0625,133.125)"/>
<path d="M0 0 C1.39120471 0.00015906 2.78241534 0.00585033 4.17358398 0.01586914 C4.90463852 0.01728409 5.63569305 0.01869904 6.38890076 0.02015686 C8.73253406 0.02577131 11.07607313 0.03832617 13.41967773 0.05102539 C15.00496282 0.05603853 16.59024939 0.06060176 18.17553711 0.06469727 C22.06945383 0.07574542 25.96329979 0.09301967 29.85717773 0.11352539 C33.15169876 8.00320829 35.92893309 16.03379119 38.62280273 24.14477539 C39.06531603 25.47096488 39.50800728 26.797095 39.9508667 28.12316895 C40.87047735 30.8790759 41.78794901 33.63568277 42.70385742 36.39282227 C43.87887989 39.92937732 45.05935791 43.4640838 46.24139786 46.99829865 C47.15288494 49.72555029 48.06152503 52.45374372 48.96929169 55.18223572 C49.4038051 56.48711007 49.83921005 57.79168789 50.27552032 59.09596252 C50.88148407 60.90879331 51.48320756 62.72303982 52.0847168 64.53735352 C52.42794983 65.5686438 52.77118286 66.59993408 53.12481689 67.66247559 C53.85717773 70.11352539 53.85717773 70.11352539 53.85717773 72.11352539 C45.93717773 72.11352539 38.01717773 72.11352539 29.85717773 72.11352539 C28.53717773 68.48352539 27.21717773 64.85352539 25.85717773 61.11352539 C17.60717773 60.78352539 9.35717773 60.45352539 0.85717773 60.11352539 C-0.13282227 64.07352539 -1.12282227 68.03352539 -2.14282227 72.11352539 C-10.39282227 72.11352539 -18.64282227 72.11352539 -27.14282227 72.11352539 C-21.20370711 53.13530577 -15.22992914 34.171456 -8.95532227 15.30102539 C-8.71776215 14.58334991 -8.48020203 13.86567444 -8.23544312 13.12625122 C-7.56867357 11.114336 -6.89763594 9.10390548 -6.22485352 7.09399414 C-5.84562744 5.95857178 -5.46640137 4.82314941 -5.07568359 3.65332031 C-3.78403167 0.13668723 -3.78403167 0.13668723 0 0 Z M-1.14282227 2.11352539 C-4.50832917 9.18974308 -7.04372111 16.43997151 -9.47094727 23.88305664 C-9.86481628 25.08161789 -10.2586853 26.28017914 -10.66448975 27.51506042 C-11.49038605 30.03305924 -12.31430293 32.55160438 -13.13500977 35.07128906 C-14.18574945 38.29597293 -15.24619952 41.5173691 -16.30934525 44.73798084 C-17.32712179 47.82618273 -18.33609247 50.91725695 -19.34594727 54.00805664 C-19.72712708 55.16223587 -20.10830688 56.3164151 -20.5010376 57.50556946 C-20.84850037 58.57735947 -21.19596313 59.64914948 -21.55395508 60.75341797 C-21.86165833 61.69445877 -22.16936157 62.63549957 -22.48638916 63.60505676 C-23.31159697 66.32631858 -23.31159697 66.32631858 -23.14282227 70.11352539 C-16.87282227 70.11352539 -10.60282227 70.11352539 -4.14282227 70.11352539 C-3.15282227 66.15352539 -2.16282227 62.19352539 -1.14282227 58.11352539 C8.75717773 58.11352539 18.65717773 58.11352539 28.85717773 58.11352539 C29.51717773 61.08352539 30.17717773 64.05352539 30.85717773 67.11352539 C31.18717773 68.10352539 31.51717773 69.09352539 31.85717773 70.11352539 C38.12717773 70.11352539 44.39717773 70.11352539 50.85717773 70.11352539 C48.73926891 62.08390298 46.32460769 54.20859585 43.69702148 46.33227539 C43.30648087 45.15636841 42.91594025 43.98046143 42.51356506 42.7689209 C41.69399551 40.30450663 40.87288358 37.84060479 40.05029297 35.37719727 C39.20872156 32.85461028 38.36920402 30.33147156 37.53369141 27.80688477 C36.32190745 24.14713139 35.10409619 20.48943895 33.88452148 16.83227539 C33.51052719 15.70108276 33.1365329 14.56989014 32.75120544 13.40441895 C32.40066605 12.35902954 32.05012665 11.31364014 31.68896484 10.23657227 C31.38268661 9.31710815 31.07640839 8.39764404 30.760849 7.45031738 C29.87206145 4.90049131 29.87206145 4.90049131 27.85717773 2.11352539 C24.84865165 1.69540369 24.84865165 1.69540369 21.31811523 1.82055664 C20.01616211 1.83022461 18.71420898 1.83989258 17.37280273 1.84985352 C15.9925885 1.87492151 14.61238017 1.90031637 13.23217773 1.92602539 C11.8441711 1.94107022 10.45614906 1.95475898 9.06811523 1.96704102 C5.66408264 2.00249969 2.26082151 2.05192241 -1.14282227 2.11352539 Z " fill="#FBFCFB" transform="translate(268.142822265625,53.886474609375)"/>
<path d="M0 0 C0.72493652 -0.01023193 1.44987305 -0.02046387 2.19677734 -0.03100586 C8.1620111 0.06688586 12.33174444 1.55832165 16.75 5.75 C18.3125 8.4375 18.3125 8.4375 18.5 11.5625 C17.3125 14.4375 17.3125 14.4375 14.0625 16.375 C10.17257336 17.47714588 9.07466005 17.39991304 5.3125 16.4375 C-1.28841352 16.11418855 -1.28841352 16.11418855 -7.6875 17.4375 C-10.79083933 23.06538125 -11.11951379 28.30029803 -9.6875 34.4375 C-7.9264807 38.16600586 -7.9264807 38.16600586 -4.6875 40.4375 C-3.16922869 40.53508265 -1.64639655 40.5672618 -0.125 40.5625 C0.76574219 40.55992187 1.65648437 40.55734375 2.57421875 40.5546875 C5.17187412 40.44351823 7.62417619 40.10409326 10.1875 39.6875 C13.383949 39.2971372 14.00938038 39.25267097 16.875 41 C18.75196279 44.18267603 18.98116442 45.79699372 18.3125 49.4375 C15.37330479 53.13248827 12.78123838 55.04831861 8.3125 56.4375 C-0.65214058 57.21155531 -9.99713463 57.79111036 -17.6875 52.4375 C-24.31834445 46.83812024 -28.12460376 40.39055416 -28.9453125 31.7109375 C-29.29518545 22.68421535 -27.75732187 14.33939833 -21.5 7.5 C-14.80080733 1.6575175 -8.74176705 0.09629968 0 0 Z M-15.6875 6.4375 C-16.574375 6.994375 -17.46125 7.55125 -18.375 8.125 C-24.50140415 14.25140415 -26.21060112 19.90412219 -26.3125 28.4375 C-26.20851328 35.37985174 -25.5791519 41.13429085 -20.6875 46.4375 C-13.30897941 53.26560676 -7.05157176 54.84146283 2.91796875 54.6953125 C8.0181288 54.30795857 11.10167086 52.95744503 15.3125 50.0625 C16.56013844 48.38995767 16.56013844 48.38995767 16.125 45.875 C15.46622967 43.29308728 15.46622967 43.29308728 13.3125 41.4375 C11.34905734 41.64328914 11.34905734 41.64328914 9.1875 42.3125 C3.32082322 43.74385613 -1.35508358 44.58170428 -7 41.8125 C-10.66136849 38.57687204 -12.39181022 35.95907671 -12.96875 31.0390625 C-13.15753789 25.80019865 -12.82007176 21.82310046 -9.6875 17.4375 C-6.32753942 14.46823251 -3.86429683 13.19730703 0.5625 13.125 C4.3125 13.4375 4.3125 13.4375 6.3125 14.4375 C9.8125 14.6875 9.8125 14.6875 13.3125 14.4375 C15.50141761 12.61276091 15.50141761 12.61276091 15.8125 10.0625 C15.54795019 7.12602694 15.54795019 7.12602694 12.5 5.1875 C3.76329387 0.39087702 -7.48346609 0.69467626 -15.6875 6.4375 Z " fill="#FDF9F3" transform="translate(273.6875,129.5625)"/>
<path d="M0 0 C3.3923737 0.49127363 5.71365302 0.48740005 9 -0.4375 C14.99537545 -1.01376529 19.65820348 -0.47499214 25 2.5625 C31.03419021 8.75548469 30.21118458 15.30509511 30.25 23.5 C30.270625 24.58474609 30.29125 25.66949219 30.3125 26.78710938 C30.32023437 28.36008789 30.32023437 28.36008789 30.328125 29.96484375 C30.34214355 31.39558228 30.34214355 31.39558228 30.35644531 32.85522461 C29.89505405 36.35958608 28.51508678 39.04741322 26 41.5625 C18.66666667 42.03561828 18.66666667 42.03561828 16.0625 40.1875 C14.04610839 37.10360695 13.82462713 35.00280547 13.68359375 31.3359375 C13.64169922 30.3046875 13.59980469 29.2734375 13.55664062 28.2109375 C13.51732422 27.13070312 13.47800781 26.05046875 13.4375 24.9375 C13.39431641 23.84953125 13.35113281 22.7615625 13.30664062 21.640625 C13.2003547 18.9480483 13.09831943 16.25537747 13 13.5625 C10.02934491 13.90477572 10.02934491 13.90477572 7 14.5625 C5.83459776 16.89330447 5.83139831 18.39502953 5.75390625 20.9921875 C5.72103516 21.87003906 5.68816406 22.74789062 5.65429688 23.65234375 C5.59336029 25.50118555 5.53603702 27.35015015 5.48242188 29.19921875 C5.44826172 30.07964844 5.41410156 30.96007812 5.37890625 31.8671875 C5.3538501 32.67140137 5.32879395 33.47561523 5.30297852 34.30419922 C4.96925113 36.79169179 4.32306953 38.43725907 3 40.5625 C-0.17821535 42.15160767 -3.53939729 41.96670974 -7 41.5625 C-9.67431489 39.75086733 -9.95920359 38.68488923 -11 35.5625 C-11.20434467 31.45019228 -11.18580189 27.33771955 -11.18530273 23.22070312 C-11.18748475 21.20160706 -11.20564123 19.18306164 -11.22460938 17.1640625 C-11.22654297 15.8853125 -11.22847656 14.6065625 -11.23046875 13.2890625 C-11.23457764 12.11939941 -11.23868652 10.94973633 -11.24291992 9.74462891 C-11.00053326 6.5694854 -10.43601273 4.38954039 -9 1.5625 C-5.93448061 -0.70360593 -3.67746649 -0.54377172 0 0 Z M-8 4.5625 C-8.40028418 9.10510278 -8.3290065 13.6621664 -8.31567383 18.22045898 C-8.31251677 20.48795747 -8.3359576 22.7541476 -8.36132812 25.02148438 C-8.36360141 26.46093585 -8.36430448 27.90039084 -8.36328125 29.33984375 C-8.36626221 30.65202881 -8.36924316 31.96421387 -8.37231445 33.31616211 C-8.27100963 36.5090149 -8.27100963 36.5090149 -6.63354492 38.48266602 C-4.22552439 40.0744572 -2.8146971 40.12543942 0 39.5625 C3.85723204 35.04535597 3.47756307 30.07569418 3.5625 24.4375 C3.59695965 22.64304558 3.63957852 20.8487243 3.69140625 19.0546875 C3.70373291 18.26433105 3.71605957 17.47397461 3.72875977 16.65966797 C4 14.5625 4 14.5625 6 11.5625 C10.05445642 11.13117485 11.54970958 11.26230639 15 13.5625 C15.38476562 15.74560547 15.38476562 15.74560547 15.40625 18.4296875 C15.42816406 19.39777344 15.45007813 20.36585938 15.47265625 21.36328125 C15.48167969 22.37777344 15.49070312 23.39226562 15.5 24.4375 C15.51790387 26.43506004 15.54866204 28.43255612 15.59375 30.4296875 C15.60083984 31.31769043 15.60792969 32.20569336 15.61523438 33.12060547 C16.07865252 36.06166401 16.93020774 37.44235816 19 39.5625 C22.04253508 40.14595476 22.04253508 40.14595476 25 39.5625 C28.29744644 34.61633034 27.32760021 28.99805896 27.3125 23.1875 C27.32861328 21.95515625 27.34472656 20.7228125 27.36132812 19.453125 C27.36197266 18.26460937 27.36261719 17.07609375 27.36328125 15.8515625 C27.36626221 14.76568848 27.36924316 13.67981445 27.37231445 12.56103516 C26.95191875 9.17526465 25.99154536 7.30500607 24 4.5625 C20.70454037 2.16842429 17.5499285 2.29406102 13.5625 2.3125 C11.89380859 2.30476562 11.89380859 2.30476562 10.19140625 2.296875 C7.052991 2.55808949 4.83164575 3.22871546 2 4.5625 C1.34 3.9025 0.68 3.2425 0 2.5625 C-4.50480277 2.0520042 -4.50480277 2.0520042 -8 4.5625 Z " fill="#FCF5EC" transform="translate(348,143.4375)"/>
<path d="M0 0 C7.59 0 15.18 0 23 0 C23 23.76 23 47.52 23 72 C15.41 72 7.82 72 0 72 C0 48.24 0 24.48 0 0 Z M2 2 C2 24.11 2 46.22 2 69 C7.94 69 13.88 69 20 69 C20 46.89 20 24.78 20 2 C14.06 2 8.12 2 2 2 Z " fill="#EFF5EE" transform="translate(401,54)"/>
<path d="M0 0 C4.29512277 3.51419136 7.72103321 7.88043396 8.71875 13.40625 C9.16675 19.67825 9.16675 19.67825 7.21875 22.84375 C6.72375 23.359375 6.22875 23.875 5.71875 24.40625 C6.37875 25.06625 7.03875 25.72625 7.71875 26.40625 C7.64494421 30.39176254 7.40253693 32.63698971 4.71875 35.65625 C-2.70765861 39.98832169 -10.15508914 41.71682173 -18.63671875 39.90234375 C-23.78637062 38.39281431 -27.60055783 36.42933213 -31.28125 32.40625 C-34.62779204 26.26571024 -36.48853972 20.41500571 -34.80859375 13.4453125 C-32.70775314 6.87861312 -29.03478624 2.14828313 -23.21875 -1.53125 C-15.97647717 -4.10628034 -6.66950318 -3.95648494 0 0 Z M-30.34375 7.90625 C-33.34081214 13.38005099 -33.12556844 19.36187686 -32.28125 25.40625 C-29.9957307 30.32890695 -26.56430294 33.21674249 -22.28125 36.40625 C-15.97365275 38.50878242 -7.31444679 38.64891793 -1.09375 36.09375 C2.25158864 34.19882595 2.25158864 34.19882595 4.71875 31.40625 C4.96944913 28.78054296 4.96944913 28.78054296 4.71875 26.40625 C0.82767877 25.33620541 -1.61361056 25.33437531 -5.28125 26.84375 C-8.8091663 28.28851572 -11.42343618 29.09208357 -15.28125 28.40625 C-17.85410724 26.233615 -19.77121919 24.42631162 -21.28125 21.40625 C-20.49886963 21.41148682 -19.71648926 21.41672363 -18.91040039 21.42211914 C-15.38819167 21.44282106 -11.8659957 21.45588838 -8.34375 21.46875 C-7.11205078 21.47712891 -5.88035156 21.48550781 -4.61132812 21.49414062 C-3.44150391 21.49736328 -2.27167969 21.50058594 -1.06640625 21.50390625 C0.01761475 21.50914307 1.10163574 21.51437988 2.21850586 21.51977539 C4.65924948 21.69051897 4.65924948 21.69051897 5.71875 20.40625 C6.31372174 15.77327333 6.16788808 12.28789142 4.03125 8.09375 C-0.10288869 3.28921044 -4.10421637 -0.04317439 -10.50390625 -0.88671875 C-18.69846784 -1.35534128 -25.31942355 1.24478347 -30.34375 7.90625 Z M-18.28125 23.40625 C-15.52791281 26.80756554 -15.52791281 26.80756554 -11.40625 26.71875 C-8.01150484 26.59974602 -5.3486642 25.9399571 -2.28125 24.40625 C-2.28125 24.07625 -2.28125 23.74625 -2.28125 23.40625 C-7.56125 23.40625 -12.84125 23.40625 -18.28125 23.40625 Z " fill="#FDF9F5" transform="translate(326.28125,145.59375)"/>
<path d="M0 0 C1.32 0.33 2.64 0.66 4 1 C4.33 1.99 4.66 2.98 5 4 C5.99 3.67 6.98 3.34 8 3 C10.80565073 3.09003641 13.57727205 3.23681788 16.375 3.4375 C23.17285924 3.88159848 29.87786113 4.07360078 36.69140625 3.9375 C39 4 39 4 40 5 C40.07179964 6.51928038 40.08392007 8.04167482 40.0625 9.5625 C40.05347656 10.38878906 40.04445313 11.21507812 40.03515625 12.06640625 C40.02355469 12.70449219 40.01195312 13.34257812 40 14 C36.20839703 14.05786668 32.41690689 14.09355054 28.625 14.125 C27.00464844 14.15013672 27.00464844 14.15013672 25.3515625 14.17578125 C24.3203125 14.18222656 23.2890625 14.18867188 22.2265625 14.1953125 C20.79691162 14.21102295 20.79691162 14.21102295 19.33837891 14.22705078 C17 14 17 14 15 12 C14.67 12.66 14.34 13.32 14 14 C13.34773438 13.97679687 12.69546875 13.95359375 12.0234375 13.9296875 C6.82862513 13.82241999 2.92290204 14.2098538 -2 16 C-5.375 16.125 -5.375 16.125 -8 16 C-8 15.67 -8 15.34 -8 15 C-6.02 14.34 -4.04 13.68 -2 13 C-1.34 8.71 -0.68 4.42 0 0 Z M8 7 C8 10 8 10 8 10 Z " fill="#403F3F" transform="translate(285,193)"/>
<path d="M0 0 C7.51953125 -0.390625 7.51953125 -0.390625 10 0 C11.0260734 1.31337396 12.02727325 2.64664105 13 4 C15.0488648 4.48057715 15.0488648 4.48057715 17.1875 4.25 C19.0746875 4.12625 19.0746875 4.12625 21 4 C21.33 2.68 21.66 1.36 22 0 C23.32 0 24.64 0 26 0 C26.33 1.32 26.66 2.64 27 4 C29.64 4 32.28 4 35 4 C35.09765625 10.15234375 35.09765625 10.15234375 35 12 C34.67 12.33 34.34 12.66 34 13 C32.865625 12.95875 31.73125 12.9175 30.5625 12.875 C28.7990625 12.936875 28.7990625 12.936875 27 13 C26.01 14.485 26.01 14.485 25 16 C22.375 16.1875 22.375 16.1875 20 16 C20 15.67 20 15.34 20 15 C15.71 14.67 11.42 14.34 7 14 C7 12.35 7 10.7 7 9 C6.34 9 5.68 9 5 9 C5 10.65 5 12.3 5 14 C3.35 14 1.7 14 0 14 C0 9.38 0 4.76 0 0 Z " fill="#585656" transform="translate(333,193)"/>
<path d="M0 0 C8.188125 -0.0825 16.37625 -0.165 24.8125 -0.25 C28.65612183 -0.30462402 28.65612183 -0.30462402 32.57739258 -0.36035156 C34.64143032 -0.37204986 36.70547739 -0.38223897 38.76953125 -0.390625 C39.81443726 -0.41108887 40.85934326 -0.43155273 41.93591309 -0.45263672 C50.08027658 -0.45644383 58.31975108 0.67879976 64.5625 6.3125 C67.73952138 12.25214867 68.28134948 17.86480853 68.125 24.4375 C68.11597656 25.16904297 68.10695313 25.90058594 68.09765625 26.65429688 C68.07436153 28.43634298 68.0385019 30.21821759 68 32 C66.515 32.495 66.515 32.495 65 33 C64.9906543 32.42556152 64.98130859 31.85112305 64.97167969 31.25927734 C64.91764969 28.63034696 64.83407106 26.00313433 64.75 23.375 C64.73582031 22.47136719 64.72164063 21.56773438 64.70703125 20.63671875 C64.50045488 14.97652617 63.85122678 11.44264004 60 7 C54.88510645 3.84400185 50.05355909 2.90667093 44.11791992 2.79467773 C42.70702339 2.7647599 42.70702339 2.7647599 41.2676239 2.73423767 C40.2653627 2.71752518 39.2631015 2.70081268 38.23046875 2.68359375 C37.19432938 2.66281265 36.15819 2.64203156 35.09065247 2.62062073 C31.78966735 2.5553787 28.48860451 2.49635821 25.1875 2.4375 C22.94595559 2.39429068 20.70441897 2.35067562 18.46289062 2.30664062 C12.97534193 2.19972333 7.48771639 2.09791038 2 2 C2.00444122 2.8224118 2.00888245 3.64482361 2.01345825 4.49215698 C2.05348672 12.23221916 2.08395975 19.97223135 2.10362434 27.71236992 C2.11407386 31.69191773 2.12825422 35.67138021 2.15087891 39.65087891 C2.17256585 43.48933886 2.18455982 47.32771659 2.18975449 51.16623306 C2.19345773 52.63270487 2.200689 54.09917205 2.21146011 55.56560898 C2.22592019 57.61529106 2.22798029 59.66463082 2.22705078 61.71435547 C2.231492 62.88239716 2.23593323 64.05043884 2.24050903 65.25387573 C2 68 2 68 0 70 C0 46.9 0 23.8 0 0 Z " fill="#F8FBF8" transform="translate(326,54)"/>
<path d="M0 0 C2.34009094 0.30828422 2.34009094 0.30828422 5.15625 -0.84375 C9.57163659 -1.33434851 11.48103359 -1.32202829 15.15625 1.28125 C17.15625 4.15625 17.15625 4.15625 17.34375 7.21875 C15.73544799 11.19718129 13.93637703 12.19618414 10.15625 14.15625 C7.83121728 14.85131241 5.49859726 15.52198019 3.15625 16.15625 C3.20845703 18.12658203 3.20845703 18.12658203 3.26171875 20.13671875 C3.28986466 21.87238301 3.31716396 23.60806115 3.34375 25.34375 C3.36888672 26.20806641 3.39402344 27.07238281 3.41992188 27.96289062 C3.47647752 32.88323209 3.34901261 36.14318063 0.15625 40.15625 C-0.84375 41.15625 -0.84375 41.15625 -4.71875 41.40625 C-8.5494138 41.36513375 -8.5494138 41.36513375 -10.78125 39.78125 C-14.03956535 34.79794417 -13.06840293 28.80507784 -13.08398438 23.03540039 C-13.0936669 20.86240017 -13.12467826 18.69035537 -13.15625 16.51757812 C-13.16278269 15.13021394 -13.16803212 13.742843 -13.171875 12.35546875 C-13.1812207 11.09565186 -13.19056641 9.83583496 -13.20019531 8.5378418 C-12.8161332 4.89424977 -12.10110774 3.01695834 -9.84375 0.15625 C-6.18782132 -1.06239289 -3.74592394 -0.54940218 0 0 Z M-9.51025391 3.78344727 C-11.2302008 6.8438947 -11.23160853 8.99369929 -11.2421875 12.49609375 C-11.24605469 13.72392578 -11.24992187 14.95175781 -11.25390625 16.21679688 C-11.24230469 17.49619141 -11.23070312 18.77558594 -11.21875 20.09375 C-11.23035156 21.36927734 -11.24195313 22.64480469 -11.25390625 23.95898438 C-11.25003906 25.18810547 -11.24617188 26.41722656 -11.2421875 27.68359375 C-11.23880371 28.80499756 -11.23541992 29.92640137 -11.23193359 31.08178711 C-10.80410328 34.47025699 -9.7932056 36.38693894 -7.84375 39.15625 C-5.5006287 38.90063677 -3.16531597 38.56354228 -0.84375 38.15625 C0.3341732 35.80040361 0.29565514 34.31702841 0.33203125 31.69140625 C0.35587891 30.80904297 0.37972656 29.92667969 0.40429688 29.01757812 C0.44717034 27.15583033 0.47847289 25.29377914 0.49804688 23.43164062 C0.52576172 22.54798828 0.55347656 21.66433594 0.58203125 20.75390625 C0.59661377 19.94445557 0.61119629 19.13500488 0.6262207 18.30102539 C1.34528211 15.39132734 2.64635025 14.68441881 5.15625 13.15625 C6.71847667 12.38289607 8.3028103 11.65256987 9.90625 10.96875 C10.70546875 10.62457031 11.5046875 10.28039062 12.328125 9.92578125 C12.93140625 9.67183594 13.5346875 9.41789063 14.15625 9.15625 C14.32312448 6.73979218 14.32312448 6.73979218 14.15625 4.15625 C12.16905395 1.72897754 12.16905395 1.72897754 8.28125 1.90625 C5.10228525 1.97560923 2.86007382 2.35370079 0.15625 4.15625 C-0.50375 3.49625 -1.16375 2.83625 -1.84375 2.15625 C-6.10017366 1.54837082 -6.10017366 1.54837082 -9.51025391 3.78344727 Z " fill="#FEFDFB" transform="translate(465.84375,143.84375)"/>
<path d="M0 0 C1.98 0.99 1.98 0.99 4 2 C4 2.66 4 3.32 4 4 C9.28 4 14.56 4 20 4 C20.33 2.68 20.66 1.36 21 0 C21.99 0.33 22.98 0.66 24 1 C24.33 1.99 24.66 2.98 25 4 C27.64 4 30.28 4 33 4 C33 4.33 33 4.66 33 5 C30.69 5.33 28.38 5.66 26 6 C25.67 8.31 25.34 10.62 25 13 C27.64 13 30.28 13 33 13 C33 13.33 33 13.66 33 14 C24.66666667 14 16.33333333 14 8 14 C6.205625 14.0309375 6.205625 14.0309375 4.375 14.0625 C1 14 1 14 0 13 C-0.07258946 10.81360547 -0.08373783 8.62499611 -0.0625 6.4375 C-0.05347656 5.23996094 -0.04445312 4.04242188 -0.03515625 2.80859375 C-0.02355469 1.88175781 -0.01195312 0.95492187 0 0 Z M4 8 C5 10 5 10 5 10 Z " fill="#545353" transform="translate(221,193)"/>
<path d="M0 0 C6.75 0.875 6.75 0.875 9 2 C9 2.66 9 3.32 9 4 C10.65 4 12.3 4 14 4 C14 5.32 14 6.64 14 8 C14.66 8 15.32 8 16 8 C16 6.68 16 5.36 16 4 C17.32 4 18.64 4 20 4 C20 7.63 20 11.26 20 15 C15.03751973 17.48124013 10.00818309 15.45692599 5 14 C3.33372702 13.96377667 1.66594626 13.95100158 0 14 C-0.33 13.67 -0.66 13.34 -1 13 C-3.67058851 12.85884839 -6.32432238 12.95752893 -9 13 C-9 12.34 -9 11.68 -9 11 C-7.02 11 -5.04 11 -3 11 C-3 10.34 -3 9.68 -3 9 C-4.98 9 -6.96 9 -9 9 C-8.67 7.68 -8.34 6.36 -8 5 C-6.02 5 -4.04 5 -2 5 C-2 5.33 -2 5.66 -2 6 C-3.65 6 -5.3 6 -7 6 C-7 6.66 -7 7.32 -7 8 C-4.69 8 -2.38 8 0 8 C-0.185625 7.4225 -0.37125 6.845 -0.5625 6.25 C-1.04023546 3.79307475 -0.75729364 2.35602466 0 0 Z M9 8 C10 10 10 10 10 10 Z " fill="#565555" transform="translate(474,193)"/>
<path d="M0 0 C0 3.3 0 6.6 0 10 C0.66 10 1.32 10 2 10 C2 6.7 2 3.4 2 0 C3.32 0.33 4.64 0.66 6 1 C6.33 1.99 6.66 2.98 7 4 C9.97 4 12.94 4 16 4 C16 6.64 16 9.28 16 12 C11.83836538 13.99758462 8.40541594 14.26935897 3.8125 14.25 C1.96591797 14.25773438 1.96591797 14.25773438 0.08203125 14.265625 C-3 14 -3 14 -5 12 C-5.1953125 9.3984375 -5.1953125 9.3984375 -5.125 6.375 C-5.10695313 5.37210938 -5.08890625 4.36921875 -5.0703125 3.3359375 C-5.04710937 2.56507813 -5.02390625 1.79421875 -5 1 C-2 0 -2 0 0 0 Z M16 0 C17 4 17 4 17 4 Z " fill="#575656" transform="translate(418,193)"/>
<path d="M0 0 C3.3825 -0.04125 6.765 -0.0825 10.25 -0.125 C11.30993164 -0.14320801 12.36986328 -0.16141602 13.46191406 -0.18017578 C14.30463867 -0.1851709 15.14736328 -0.19016602 16.015625 -0.1953125 C16.87446289 -0.20578613 17.73330078 -0.21625977 18.61816406 -0.22705078 C21.21730884 0.02071517 22.80451408 0.60470931 25 2 C26.47515195 4.95030389 26.28692341 7.65495339 26.375 10.9375 C26.42398437 12.18402344 26.47296875 13.43054688 26.5234375 14.71484375 C26 18 26 18 24.15234375 19.9296875 C19.48406277 21.51470483 15.07569334 21.3145488 10.1875 21.1875 C6.825625 21.125625 3.46375 21.06375 0 21 C0 14.07 0 7.14 0 0 Z M3 3 C3 8.28 3 13.56 3 19 C5.7708983 19.02696009 8.5415345 19.04681952 11.3125 19.0625 C12.09818359 19.07087891 12.88386719 19.07925781 13.69335938 19.08789062 C14.8293457 19.09272461 14.8293457 19.09272461 15.98828125 19.09765625 C17.03302612 19.10551147 17.03302612 19.10551147 18.09887695 19.11352539 C20.22497968 19.06895991 20.22497968 19.06895991 23 18 C24.23184766 15.53630468 24.16732342 13.8105499 24.1875 11.0625 C24.20876953 9.74958984 24.20876953 9.74958984 24.23046875 8.41015625 C24.16663349 5.73755665 24.16663349 5.73755665 22 3 C19.97112689 2.58519893 19.97112689 2.58519893 17.6484375 2.70703125 C16.37226563 2.7215332 16.37226563 2.7215332 15.0703125 2.73632812 C13.73613281 2.7740332 13.73613281 2.7740332 12.375 2.8125 C11.02921875 2.83280273 11.02921875 2.83280273 9.65625 2.85351562 C7.43724529 2.88892527 5.21854824 2.94273346 3 3 Z " fill="#EEF4ED" transform="translate(346,70)"/>
<path d="M0 0 C7.51953125 -0.390625 7.51953125 -0.390625 10 0 C11.0260734 1.31337396 12.02727325 2.64664105 13 4 C15.0488648 4.48057715 15.0488648 4.48057715 17.1875 4.25 C19.0746875 4.12625 19.0746875 4.12625 21 4 C20.33333333 5.33333333 19.66666667 6.66666667 19 8 C16.4375 8.625 16.4375 8.625 14 9 C14 9.99 14 10.98 14 12 C16.64 12 19.28 12 22 12 C22 12.66 22 13.32 22 14 C17.05 14 12.1 14 7 14 C7 12.35 7 10.7 7 9 C6.34 9 5.68 9 5 9 C5 10.65 5 12.3 5 14 C3.35 14 1.7 14 0 14 C0 9.38 0 4.76 0 0 Z " fill="#3F3D3D" transform="translate(333,193)"/>
<path d="M0 0 C0.66 0 1.32 0 2 0 C3.20979768 3.86242785 4.41761594 7.72544206 5.62109375 11.58984375 C6.47699292 14.33577883 7.34313662 17.07795129 8.22265625 19.81640625 C8.58230469 20.94949219 8.94195312 22.08257812 9.3125 23.25 C9.80169922 24.77367187 9.80169922 24.77367187 10.30078125 26.328125 C11 29 11 29 11 33 C4.07 33 -2.86 33 -10 33 C-7.9678346 25.3653109 -5.73760384 17.83082818 -3.3125 10.3125 C-2.99216797 9.31283203 -2.67183594 8.31316406 -2.34179688 7.28320312 C-1.5633079 4.85478228 -0.78268758 2.42707018 0 0 Z M0 8 C-2.31 15.59 -4.62 23.18 -7 31 C-2.05 31 2.9 31 8 31 C6.48650116 23.55863071 4.70711392 16.10617403 2 9 C1.34 8.67 0.68 8.34 0 8 Z " fill="#F1F6F1" transform="translate(281,67)"/>
<path d="M0 0 C1.16097702 0.00007553 2.32195404 0.00015106 3.51811218 0.00022888 C5.3979052 0.00797081 5.3979052 0.00797081 7.31567383 0.01586914 C8.59879959 0.01728409 9.88192535 0.01869904 11.20393372 0.02015686 C14.61190749 0.02397134 18.01983851 0.03379248 21.42779541 0.04486084 C24.90669171 0.05509796 28.38559493 0.05965941 31.86450195 0.06469727 C38.6880872 0.07541572 45.51164409 0.0924793 52.33520508 0.11352539 C52.33520508 1.10352539 52.33520508 2.09352539 52.33520508 3.11352539 C31.87520508 3.11352539 11.41520508 3.11352539 -9.66479492 3.11352539 C-7.73898204 -0.73810037 -3.81942342 -0.00828508 0 0 Z " fill="#E39F48" transform="translate(184.664794921875,57.886474609375)"/>
<path d="M0 0 C5 0 10 0 15 0 C15 4.62 15 9.24 15 14 C13.68 14 12.36 14 11 14 C10.67 12.35 10.34 10.7 10 9 C9.67 9.33 9.34 9.66 9 10 C7.33382885 10.04063832 5.66611905 10.042721 4 10 C4 11.32 4 12.64 4 14 C2.68 14 1.36 14 0 14 C0 9.38 0 4.76 0 0 Z " fill="#2B2929" transform="translate(205,193)"/>
<path d="M0 0 C3.40429157 0.48632737 4.62064374 1.07136523 7.0625 3.4375 C7.57666016 5.75 7.57666016 5.75 7.6015625 8.4375 C7.62476563 9.406875 7.64796875 10.37625 7.671875 11.375 C7.67703125 12.385625 7.6821875 13.39625 7.6875 14.4375 C7.71301178 16.43762381 7.74651284 18.4376661 7.7890625 20.4375 C7.79800537 21.7678125 7.79800537 21.7678125 7.80712891 23.125 C7.91336932 25.71215876 7.91336932 25.71215876 10.0625 28.4375 C13.02019177 28.93760524 13.02019177 28.93760524 16.0625 28.4375 C17.94140434 27.06243901 17.94140434 27.06243901 19.0625 25.4375 C19.3925 26.4275 19.7225 27.4175 20.0625 28.4375 C19.0625 29.9375 19.0625 29.9375 17.0625 31.4375 C13.42227551 32.02903648 10.19371706 32.24029921 7.125 30.0625 C5.10860839 26.97860695 4.88712713 24.87780547 4.74609375 21.2109375 C4.70419922 20.1796875 4.66230469 19.1484375 4.61914062 18.0859375 C4.57982422 17.00570312 4.54050781 15.92546875 4.5 14.8125 C4.45681641 13.72453125 4.41363281 12.6365625 4.36914062 11.515625 C4.2628547 8.8230483 4.16081943 6.13037747 4.0625 3.4375 C1.09184491 3.77977572 1.09184491 3.77977572 -1.9375 4.4375 C-3.11219444 6.78688888 -3.13784889 8.38823205 -3.25390625 11.0078125 C-3.29580078 11.90371094 -3.33769531 12.79960937 -3.38085938 13.72265625 C-3.43983398 15.12837891 -3.43983398 15.12837891 -3.5 16.5625 C-3.54318359 17.50738281 -3.58636719 18.45226562 -3.63085938 19.42578125 C-3.73709072 21.76287092 -3.83913176 24.1000683 -3.9375 26.4375 C-4.9275 26.7675 -5.9175 27.0975 -6.9375 27.4375 C-6.85656185 23.68662023 -6.74372313 19.93735902 -6.625 16.1875 C-6.60244141 15.12402344 -6.57988281 14.06054688 -6.55664062 12.96484375 C-6.52119141 11.94003906 -6.48574219 10.91523438 -6.44921875 9.859375 C-6.42303467 8.91674805 -6.39685059 7.97412109 -6.36987305 7.00292969 C-5.65459779 2.75893625 -4.32127699 0.64359445 0 0 Z " fill="#FEFDFB" transform="translate(356.9375,153.5625)"/>
<path d="M0 0 C1.39456452 0.00667256 2.78911118 0.01863093 4.18359375 0.03515625 C4.89451172 0.03966797 5.60542969 0.04417969 6.33789062 0.04882812 C8.09899388 0.06064761 9.86005411 0.07858362 11.62109375 0.09765625 C11.95109375 1.08765625 12.28109375 2.07765625 12.62109375 3.09765625 C11.62109375 4.09765625 11.62109375 4.09765625 8.55859375 4.16015625 C7.58921875 4.13953125 6.61984375 4.11890625 5.62109375 4.09765625 C5.29109375 3.43765625 4.96109375 2.77765625 4.62109375 2.09765625 C4.29109375 3.08765625 3.96109375 4.07765625 3.62109375 5.09765625 C5.60109375 5.09765625 7.58109375 5.09765625 9.62109375 5.09765625 C9.62109375 5.75765625 9.62109375 6.41765625 9.62109375 7.09765625 C7.64109375 7.09765625 5.66109375 7.09765625 3.62109375 7.09765625 C3.62109375 7.75765625 3.62109375 8.41765625 3.62109375 9.09765625 C5.93109375 9.09765625 8.24109375 9.09765625 10.62109375 9.09765625 C10.62109375 9.42765625 10.62109375 9.75765625 10.62109375 10.09765625 C3.03109375 10.09765625 -4.55890625 10.09765625 -12.37890625 10.09765625 C-12.37890625 9.76765625 -12.37890625 9.43765625 -12.37890625 9.09765625 C-10.39890625 9.09765625 -8.41890625 9.09765625 -6.37890625 9.09765625 C-6.37890625 8.43765625 -6.37890625 7.77765625 -6.37890625 7.09765625 C-8.02890625 7.09765625 -9.67890625 7.09765625 -11.37890625 7.09765625 C-11.37890625 6.43765625 -11.37890625 5.77765625 -11.37890625 5.09765625 C-9.39890625 5.09765625 -7.41890625 5.09765625 -5.37890625 5.09765625 C-5.23453125 4.45828125 -5.09015625 3.81890625 -4.94140625 3.16015625 C-4.0099947 -0.25501943 -3.77896399 0.10921861 0 0 Z M1.62109375 3.09765625 C1.29109375 4.74765625 0.96109375 6.39765625 0.62109375 8.09765625 C1.28109375 7.76765625 1.94109375 7.43765625 2.62109375 7.09765625 C2.29109375 5.77765625 1.96109375 4.45765625 1.62109375 3.09765625 Z " fill="#5A5858" transform="translate(461.37890625,196.90234375)"/>
<path d="M0 0 C0.05399736 1.45792884 0.09279177 2.91642712 0.125 4.375 C0.14820313 5.18710938 0.17140625 5.99921875 0.1953125 6.8359375 C0 9 0 9 -2 11 C-5.125 11.125 -5.125 11.125 -8 11 C-8 9.68 -8 8.36 -8 7 C-8.66 7 -9.32 7 -10 7 C-10 7.66 -10 8.32 -10 9 C-10.66 9 -11.32 9 -12 9 C-12 6.69 -12 4.38 -12 2 C-13.32 2 -14.64 2 -16 2 C-16 3.98 -16 5.96 -16 8 C-16.66 8 -17.32 8 -18 8 C-18 6.02 -18 4.04 -18 2 C-11.92972642 -0.1583195 -6.40629424 -0.20852314 0 0 Z " fill="#6F6D6D" transform="translate(284,197)"/>
<path d="M0 0 C1.65 0.33 3.3 0.66 5 1 C5 1.66 5 2.32 5 3 C5.66 3 6.32 3 7 3 C6.34 4.98 5.68 6.96 5 9 C5.99 9.33 6.98 9.66 8 10 C7.01 11.485 7.01 11.485 6 13 C3.37302936 13.22137393 0.99106036 13.28162025 -1.625 13.1875 C-2.33140625 13.17396484 -3.0378125 13.16042969 -3.765625 13.14648438 C-5.51074128 13.1111104 -7.25546608 13.05730221 -9 13 C-9 12.67 -9 12.34 -9 12 C-5.535 11.505 -5.535 11.505 -2 11 C-2 9.02 -2 7.04 -2 5 C-2.33 5.66 -2.66 6.32 -3 7 C-5.32156597 7.40729228 -7.6568787 7.74438677 -10 8 C-9.67 6.35 -9.34 4.7 -9 3 C-6.03 3 -3.06 3 0 3 C0 2.01 0 1.02 0 0 Z " fill="#383636" transform="translate(399,194)"/>
<path d="M0 0 C0.33 0 0.66 0 1 0 C1 2.64 1 5.28 1 8 C-0.98 8.33 -2.96 8.66 -5 9 C-5 10.65 -5 12.3 -5 14 C-3.02 14.66 -1.04 15.32 1 16 C1 23.59 1 31.18 1 39 C0.01 38.67 -0.98 38.34 -2 38 C-2.00410889 37.44014404 -2.00821777 36.88028809 -2.01245117 36.3034668 C-2.04537305 33.7637413 -2.11600694 31.22642019 -2.1875 28.6875 C-2.19330078 27.80642578 -2.19910156 26.92535156 -2.20507812 26.01757812 C-2.28854563 23.57847222 -2.41049376 21.36948281 -3 19 C-5.35729065 16.96508846 -5.35729065 16.96508846 -8 16 C-9 13.625 -9 13.625 -9 11 C-7.5625 8.1875 -7.5625 8.1875 -6 6 C-3.03 6.495 -3.03 6.495 0 7 C0 4.69 0 2.38 0 0 Z " fill="#FCF7F1" transform="translate(387,139)"/>
<path d="M0 0 C0.33 0.99 0.66 1.98 1 3 C3.31 3 5.62 3 8 3 C8 4.32 8 5.64 8 7 C11.465 6.505 11.465 6.505 15 6 C15 5.34 15 4.68 15 4 C13.35 4 11.7 4 10 4 C10 3.67 10 3.34 10 3 C11.99954746 2.95745644 14.00041636 2.95919217 16 3 C17 4 17 4 17.125 7 C17 10 17 10 16 11 C13.98405418 11.23427778 11.961526 11.41336124 9.9375 11.5625 C8.83277344 11.64628906 7.72804688 11.73007813 6.58984375 11.81640625 C5.73519531 11.87699219 4.88054687 11.93757812 4 12 C4 9.69 4 7.38 4 5 C3.34 5 2.68 5 2 5 C2 6.98 2 8.96 2 11 C1.34 11 0.68 11 0 11 C0 7.37 0 3.74 0 0 Z " fill="#868585" transform="translate(381,195)"/>
<path d="M0 0 C0.99 0.495 0.99 0.495 2 1 C2 1.66 2 2.32 2 3 C4.97 3 7.94 3 11 3 C11 4.98 11 6.96 11 9 C12.65 9 14.3 9 16 9 C16 7.02 16 5.04 16 3 C16.33 3 16.66 3 17 3 C17.04241723 5.33294775 17.04092937 7.66702567 17 10 C15.24440058 11.75559942 12.96417558 11.13221919 10.62890625 11.13671875 C9.92636719 11.13285156 9.22382813 11.12898437 8.5 11.125 C7.79746094 11.12886719 7.09492188 11.13273438 6.37109375 11.13671875 C1.12661378 11.12661378 1.12661378 11.12661378 0 10 C-0.07205511 8.31391034 -0.08386068 6.62499341 -0.0625 4.9375 C-0.05347656 4.01839844 -0.04445312 3.09929687 -0.03515625 2.15234375 C-0.02355469 1.44207031 -0.01195312 0.73179687 0 0 Z M3 6 C4 8 4 8 4 8 Z " fill="#8C8B8B" transform="translate(222,195)"/>
<path d="M0 0 C4.03578215 -0.46927699 5.58724419 -0.29858931 8.9375 2.125 C11 5 11 5 11.1875 8.0625 C9.57279303 12.05677514 7.78885031 13.00224257 4 15 C1.35573954 16.10612691 -1.28701176 17.06448681 -4 18 C-4.33 23.28 -4.66 28.56 -5 34 C-5.33 34 -5.66 34 -6 34 C-6.13517903 31.24835568 -6.23415251 28.50335479 -6.3125 25.75 C-6.35439453 24.97269531 -6.39628906 24.19539063 -6.43945312 23.39453125 C-6.56305473 17.60997596 -6.56305473 17.60997596 -3.75 14.5625 C-0.21133174 12.55189304 3.14806686 11.30574005 7 10 C7 8.35 7 6.7 7 5 C4.36 4.01 1.72 3.02 -1 2 C-0.67 1.34 -0.34 0.68 0 0 Z " fill="#FAF0E2" transform="translate(472,143)"/>
<path d="M0 0 C2.875 2.3125 2.875 2.3125 5 5 C5 5.99 5 6.98 5 8 C-0.28 8 -5.56 8 -11 8 C-10 3 -10 3 -8.3125 1.1875 C-5.21737291 -0.40188959 -3.43979993 -0.56159999 0 0 Z M-6 3 C-6.33 3.66 -6.66 4.32 -7 5 C-4.36 5 -1.72 5 1 5 C0.67 4.34 0.34 3.68 0 3 C-1.98 3 -3.96 3 -6 3 Z " fill="#FBF4EA" transform="translate(432,153)"/>
<path d="M0 0 C3.78039045 0.6172066 5.44507943 1.72861352 8.0625 4.5 C8.0625 5.82 8.0625 7.14 8.0625 8.5 C2.7825 8.5 -2.4975 8.5 -7.9375 8.5 C-6.68091539 3.47366155 -5.30458865 0.90290871 0 0 Z M-2.9375 3.5 C-3.2675 4.16 -3.5975 4.82 -3.9375 5.5 C-0.9675 5.5 2.0025 5.5 5.0625 5.5 C3.16494856 3.15026182 3.16494856 3.15026182 -0.0625 3.375 C-1.01125 3.41625 -1.96 3.4575 -2.9375 3.5 Z " fill="#FBF4EA" transform="translate(312.9375,152.5)"/>
<path d="M0 0 C1.32 0.33 2.64 0.66 4 1 C4.33 1.99 4.66 2.98 5 4 C5.99 3.67 6.98 3.34 8 3 C8.99 3.33 9.98 3.66 11 4 C10.67 5.65 10.34 7.3 10 9 C7 9 7 9 5 8 C5 7.67 5 7.34 5 7 C4.34 7 3.68 7 3 7 C2.67 5.68 2.34 4.36 2 3 C1.67 5.97 1.34 8.94 1 12 C1.66 12 2.32 12 3 12 C3.33 11.34 3.66 10.68 4 10 C5.32 11.32 6.64 12.64 8 14 C7.36191406 14.06058594 6.72382813 14.12117187 6.06640625 14.18359375 C5.24011719 14.26738281 4.41382813 14.35117188 3.5625 14.4375 C2.32693359 14.55931641 2.32693359 14.55931641 1.06640625 14.68359375 C-0.98662025 14.78930815 -0.98662025 14.78930815 -2 16 C-3.99958364 16.04080783 -6.00045254 16.04254356 -8 16 C-8 15.67 -8 15.34 -8 15 C-6.02 14.34 -4.04 13.68 -2 13 C-1.34 8.71 -0.68 4.42 0 0 Z " fill="#312F2F" transform="translate(285,193)"/>
<path d="M0 0 C3.3 0 6.6 0 10 0 C10 0.33 10 0.66 10 1 C7.36 1 4.72 1 2 1 C2.33 3.31 2.66 5.62 3 8 C4.98 8 6.96 8 9 8 C9 9.65 9 11.3 9 13 C9.66 12.835 10.32 12.67 11 12.5 C14.73099794 11.87816701 18.21873378 11.93591074 22 12 C22 12.66 22 13.32 22 14 C17.05 14 12.1 14 7 14 C7 12.35 7 10.7 7 9 C6.34 9 5.68 9 5 9 C5 10.65 5 12.3 5 14 C3.35 14 1.7 14 0 14 C0 9.38 0 4.76 0 0 Z " fill="#353333" transform="translate(333,193)"/>
<path d="M0 0 C1.97909398 -0.02686553 3.95828971 -0.04633375 5.9375 -0.0625 C7.03964844 -0.07410156 8.14179688 -0.08570313 9.27734375 -0.09765625 C12 0 12 0 13 1 C13.07179964 2.51928038 13.08392007 4.04167482 13.0625 5.5625 C13.05347656 6.38878906 13.04445313 7.21507812 13.03515625 8.06640625 C13.02355469 8.70449219 13.01195312 9.34257812 13 10 C11.68 10 10.36 10 9 10 C9 7.69 9 5.38 9 3 C8.34 3 7.68 3 7 3 C7 4.98 7 6.96 7 9 C6.34 9 5.68 9 5 9 C5 6.69 5 4.38 5 2 C3.68 2 2.36 2 1 2 C1 3.98 1 5.96 1 8 C0.67 8 0.34 8 0 8 C0 5.36 0 2.72 0 0 Z " fill="#908F8F" transform="translate(312,197)"/>
<path d="M0 0 C0.99 1.32 1.98 2.64 3 4 C3.61875 3.34 4.2375 2.68 4.875 2 C7.93981226 -0.88452919 10.86674159 0 15 0 C15.33 1.32 15.66 2.64 16 4 C14.02 4 12.04 4 10 4 C10 4.66 10 5.32 10 6 C11.65 6 13.3 6 15 6 C15 6.66 15 7.32 15 8 C8.25 8.125 8.25 8.125 6 7 C4.68 7 3.36 7 2 7 C0.5393715 4.35261084 0 3.10551666 0 0 Z " fill="#8D8C8C" transform="translate(440,198)"/>
<path d="M0 0 C0.99 0 1.98 0 3 0 C3 1.32 3 2.64 3 4 C3.66 4 4.32 4 5 4 C5 2.68 5 1.36 5 0 C6.32 0 7.64 0 9 0 C9 3.63 9 7.26 9 11 C4.08601882 13.45699059 -1.08730608 11.57206205 -6 10 C-4.68 9.34 -3.36 8.68 -2 8 C-2 6.35 -2 4.7 -2 3 C-1.34 2.67 -0.68 2.34 0 2 C0.33 3.32 0.66 4.64 1 6 C2.2065625 6.185625 2.2065625 6.185625 3.4375 6.375 C4.7059375 6.684375 4.7059375 6.684375 6 7 C6.33 7.66 6.66 8.32 7 9 C7.33 6.36 7.66 3.72 8 1 C7.34 1 6.68 1 6 1 C6 2.65 6 4.3 6 6 C4.68 6 3.36 6 2 6 C2 4.35 2 2.7 2 1 C1.34 0.67 0.68 0.34 0 0 Z " fill="#333131" transform="translate(485,197)"/>
<path d="M0 0 C0.66 0.99 1.32 1.98 2 3 C3.97747122 3.36297936 3.97747122 3.36297936 6.125 3.1875 C7.40375 3.125625 8.6825 3.06375 10 3 C10 3.33 10 3.66 10 4 C7.69 4.33 5.38 4.66 3 5 C2.67 7.31 2.34 9.62 2 12 C4.64 12 7.28 12 10 12 C10 12.33 10 12.66 10 13 C2.66666667 13 -4.66666667 13 -12 13 C-12 12.67 -12 12.34 -12 12 C-10.02 11.67 -8.04 11.34 -6 11 C-5.67 8.69 -5.34 6.38 -5 4 C-4.01 3.67 -3.02 3.34 -2 3 C-2 5.97 -2 8.94 -2 12 C-1.34 12 -0.68 12 0 12 C0 8.04 0 4.08 0 0 Z " fill="#2A2828" transform="translate(244,194)"/>
<path d="M0 0 C0.99 0.495 0.99 0.495 2 1 C2 2.32 2 3.64 2 5 C3.65 4.34 5.3 3.68 7 3 C6.01 4.485 6.01 4.485 5 6 C5.99 6.33 6.98 6.66 8 7 C8.66 5.68 9.32 4.36 10 3 C11.32 3.33 12.64 3.66 14 4 C13.01 4 12.02 4 11 4 C11 6.31 11 8.62 11 11 C9.25 11.6875 9.25 11.6875 7 12 C5.65210653 11.01971384 4.31787285 10.02028865 3 9 C2.01 9.33 1.02 9.66 0 10 C0 6.7 0 3.4 0 0 Z " fill="#818080" transform="translate(286,195)"/>
<path d="M0 0 C2.64 0 5.28 0 8 0 C8.625 2.375 8.625 2.375 9 5 C7 7 7 7 4.375 7.125 C3.59125 7.08375 2.8075 7.0425 2 7 C2 7.99 2 8.98 2 10 C1.34 10 0.68 10 0 10 C0 6.7 0 3.4 0 0 Z " fill="#D7D7D7" transform="translate(206,195)"/>
<path d="M0 0 C0.33 0 0.66 0 1 0 C1 2.31 1 4.62 1 7 C1.66 7 2.32 7 3 7 C3 5.02 3 3.04 3 1 C3.66 1.33 4.32 1.66 5 2 C5 3.32 5 4.64 5 6 C7.97 6.33 10.94 6.66 14 7 C14 7.33 14 7.66 14 8 C6.41 8 -1.18 8 -9 8 C-9 7.67 -9 7.34 -9 7 C-7.02 7 -5.04 7 -3 7 C-3 6.34 -3 5.68 -3 5 C-4.65 5 -6.3 5 -8 5 C-8 4.34 -8 3.68 -8 3 C-6.865625 2.87625 -5.73125 2.7525 -4.5625 2.625 C-3.386875 2.41875 -2.21125 2.2125 -1 2 C-0.67 1.34 -0.34 0.68 0 0 Z " fill="#333131" transform="translate(458,199)"/>
<path d="M0 0 C2.64 0 5.28 0 8 0 C8 3.3 8 6.6 8 10 C7.67 8.68 7.34 7.36 7 6 C5.02 6 3.04 6 1 6 C0.67 7.32 0.34 8.64 0 10 C0 6.7 0 3.4 0 0 Z " fill="#E5E4E4" transform="translate(335,195)"/>
<path d="M0 0 C3.49275577 3.40590216 6.71340683 6.9202773 9.8125 10.6875 C10.60269531 11.64011719 11.39289063 12.59273437 12.20703125 13.57421875 C14 16 14 16 14 18 C9.58980087 16.38959316 7.11866017 13.05016131 4.1875 9.5625 C3.67251953 8.97662109 3.15753906 8.39074219 2.62695312 7.78710938 C1.16796875 6.06640625 1.16796875 6.06640625 -1 3 C-0.67 2.01 -0.34 1.02 0 0 Z " fill="#E39D44" transform="translate(147,51)"/>
<path d="M0 0 C0.99 0.495 0.99 0.495 2 1 C2 1.66 2 2.32 2 3 C3.65 3.33 5.3 3.66 7 4 C7 5.98 7 7.96 7 10 C4.69 10 2.38 10 0 10 C0 6.7 0 3.4 0 0 Z M3 6 C4 8 4 8 4 8 Z " fill="#D8D8D8" transform="translate(222,195)"/>
<path d="M0 0 C-0.56847656 0.20753906 -1.13695312 0.41507812 -1.72265625 0.62890625 C-5.79414437 3.08017955 -8.00111274 7.31289702 -10.68359375 11.15234375 C-12.95511552 13.94482161 -14.8171982 15.38895218 -18 17 C-16.396395 13.49367197 -14.320147 10.49450479 -12.0625 7.375 C-11.37285156 6.41335937 -10.68320313 5.45171875 -9.97265625 4.4609375 C-6.8652807 0.58440959 -4.82937656 -0.26104738 0 0 Z " fill="#FDF8F2" transform="translate(205,87)"/>
<path d="M0 0 C3 0.125 3 0.125 4 1.125 C4.04080783 3.12458364 4.04254356 5.12545254 4 7.125 C1.36 7.125 -1.28 7.125 -4 7.125 C-4.04254356 5.12545254 -4.04080783 3.12458364 -4 1.125 C-3 0.125 -3 0.125 0 0 Z M-1 3.125 C-1 3.785 -1 4.445 -1 5.125 C-0.34 5.125 0.32 5.125 1 5.125 C1 4.465 1 3.805 1 3.125 C0.34 3.125 -0.32 3.125 -1 3.125 Z " fill="#A3A2A2" transform="translate(260,197.875)"/>
<path d="M0 0 C0.33 0.99 0.66 1.98 1 3 C1.804375 2.979375 2.60875 2.95875 3.4375 2.9375 C6 3 6 3 7 4 C7.04080783 5.99958364 7.04254356 8.00045254 7 10 C4.69 10 2.38 10 0 10 C0 6.7 0 3.4 0 0 Z M3 6 C4 8 4 8 4 8 Z " fill="#E2E2E2" transform="translate(371,195)"/>
<path d="M0 0 C1.4540625 0.0309375 1.4540625 0.0309375 2.9375 0.0625 C2.9375 3.0325 2.9375 6.0025 2.9375 9.0625 C0.9575 9.0625 -1.0225 9.0625 -3.0625 9.0625 C-3.0625 8.7325 -3.0625 8.4025 -3.0625 8.0625 C-1.4125 8.0625 0.2375 8.0625 1.9375 8.0625 C1.9375 7.4025 1.9375 6.7425 1.9375 6.0625 C0.2875 6.0625 -1.3625 6.0625 -3.0625 6.0625 C-3.44468767 4.40635343 -3.77645102 2.73792976 -4.0625 1.0625 C-3.0625 0.0625 -3.0625 0.0625 0 0 Z " fill="#EEEEEE" transform="translate(280.0625,197.9375)"/>
<path d="M0 0 C1.32 0.33 2.64 0.66 4 1 C4 3.97 4 6.94 4 10 C3.01 10 2.02 10 1 10 C0.67 8.68 0.34 7.36 0 6 C-0.33 6.33 -0.66 6.66 -1 7 C-2.66617115 7.04063832 -4.33388095 7.042721 -6 7 C-6 7.99 -6 8.98 -6 10 C-6.99 9.67 -7.98 9.34 -9 9 C-8.34 9 -7.68 9 -7 9 C-7 8.01 -7 7.02 -7 6 C-6.030625 5.7525 -5.06125 5.505 -4.0625 5.25 C-2.5465625 4.63125 -2.5465625 4.63125 -1 4 C-0.03122943 1.96756452 -0.03122943 1.96756452 0 0 Z " fill="#686767" transform="translate(215,196)"/>
<path d="M0 0 C-1.98 0.99 -1.98 0.99 -4 2 C-4 2.99 -4 3.98 -4 5 C-1.03 5.495 -1.03 5.495 2 6 C2 6.33 2 6.66 2 7 C-1.375 7.125 -1.375 7.125 -5 7 C-5.66 6.34 -6.32 5.68 -7 5 C-7.33 5.66 -7.66 6.32 -8 7 C-9.65 7 -11.3 7 -13 7 C-12.01 6.67 -11.02 6.34 -10 6 C-10 4.02 -10 2.04 -10 0 C-6.30581799 -1.231394 -3.7943739 -0.64432764 0 0 Z " fill="#2B2929" transform="translate(307,200)"/>
<path d="M0 0 C1.98 0 3.96 0 6 0 C6 0.33 6 0.66 6 1 C4.35 1 2.7 1 1 1 C1 1.66 1 2.32 1 3 C3.31 3 5.62 3 8 3 C7.67 4.65 7.34 6.3 7 8 C4.36 8 1.72 8 -1 8 C-1 7.34 -1 6.68 -1 6 C0.98 6 2.96 6 5 6 C5 5.34 5 4.68 5 4 C3.02 4 1.04 4 -1 4 C-0.67 2.68 -0.34 1.36 0 0 Z " fill="#A3A2A2" transform="translate(466,198)"/>
<path d="M0 0 C0.9590625 0.2784375 0.9590625 0.2784375 1.9375 0.5625 C2.9584375 0.7790625 2.9584375 0.7790625 4 1 C4.33 0.67 4.66 0.34 5 0 C7.18639453 -0.07258946 9.37500389 -0.08373783 11.5625 -0.0625 C13.35880859 -0.04896484 13.35880859 -0.04896484 15.19140625 -0.03515625 C16.11824219 -0.02355469 17.04507812 -0.01195312 18 0 C18 0.66 18 1.32 18 2 C15.98177083 1.90234375 13.96354167 1.8046875 11.9453125 1.70703125 C10.98238281 1.85205078 10.98238281 1.85205078 10 2 C9.01 3.485 9.01 3.485 8 5 C7.67 4.01 7.34 3.02 7 2 C6.34 3.65 5.68 5.3 5 7 C2.47411298 4.63707344 1.11179163 3.33537489 0 0 Z " fill="#3B3939" transform="translate(439,197)"/>
<path d="M0 0 C0.33 0 0.66 0 1 0 C1 3.3 1 6.6 1 10 C2.98 10 4.96 10 7 10 C7 10.33 7 10.66 7 11 C5.700625 10.979375 4.40125 10.95875 3.0625 10.9375 C1.70834367 10.91600546 0.35243917 10.92851801 -1 11 C-1.33 11.33 -1.66 11.66 -2 12 C-4.33297433 12.04092937 -6.66705225 12.04241723 -9 12 C-9 11.67 -9 11.34 -9 11 C-7.02 10.67 -5.04 10.34 -3 10 C-2.690625 8.72125 -2.38125 7.4425 -2.0625 6.125 C-1.52394756 3.89898325 -1.0263 2.05260001 0 0 Z " fill="#3E3C3C" transform="translate(370,195)"/>
<path d="M0 0 C0.33 0 0.66 0 1 0 C1 1.65 1 3.3 1 5 C1.99 4.67 2.98 4.34 4 4 C4 2.68 4 1.36 4 0 C4.66 0.33 5.32 0.66 6 1 C5.67 1.66 5.34 2.32 5 3 C5.99 3.33 6.98 3.66 8 4 C7.01 5.485 7.01 5.485 6 7 C3.37302936 7.22137393 0.99106036 7.28162025 -1.625 7.1875 C-2.33140625 7.17396484 -3.0378125 7.16042969 -3.765625 7.14648438 C-5.51074128 7.1111104 -7.25546608 7.05730221 -9 7 C-9 6.67 -9 6.34 -9 6 C-4.545 5.505 -4.545 5.505 0 5 C0 3.35 0 1.7 0 0 Z " fill="#302E2E" transform="translate(399,200)"/>
<path d="M0 0 C1.99954746 -0.04254356 4.00041636 -0.04080783 6 0 C7 1 7 1 7.0625 4.0625 C7.041875 5.031875 7.02125 6.00125 7 7 C4.69 7 2.38 7 0 7 C0 5.68 0 4.36 0 3 C1.65 3 3.3 3 5 3 C5 2.34 5 1.68 5 1 C3.35 1 1.7 1 0 1 C0 0.67 0 0.34 0 0 Z " fill="#B2B1B1" transform="translate(391,198)"/>
<path d="M0 0 C1.66611905 -0.042721 3.33382885 -0.04063832 5 0 C6 1 6 1 6.0625 4.0625 C6.041875 5.031875 6.02125 6.00125 6 7 C3.69 7 1.38 7 -1 7 C-0.67 5.68 -0.34 4.36 0 3 C1.32 3 2.64 3 4 3 C4 2.34 4 1.68 4 1 C2.68 0.67 1.36 0.34 0 0 Z " fill="#B4B4B4" transform="translate(362,198)"/>
<path d="M0 0 C1.98 0 3.96 0 6 0 C6 2.31 6 4.62 6 7 C3.69 7 1.38 7 -1 7 C-0.67 5.68 -0.34 4.36 0 3 C1.65 3 3.3 3 5 3 C5 2.34 5 1.68 5 1 C3.35 1 1.7 1 0 1 C0 0.67 0 0.34 0 0 Z " fill="#B3B2B2" transform="translate(347,198)"/>
<path d="M0 0 C1.98 0 3.96 0 6 0 C6 2.31 6 4.62 6 7 C3.69 7 1.38 7 -1 7 C-0.67 5.68 -0.34 4.36 0 3 C1.65 3 3.3 3 5 3 C5 2.34 5 1.68 5 1 C3.35 1 1.7 1 0 1 C0 0.67 0 0.34 0 0 Z " fill="#B5B5B5" transform="translate(303,198)"/>
<path d="M0 0 C1.98 0 3.96 0 6 0 C6.33 1.32 6.66 2.64 7 4 C5.02 4 3.04 4 1 4 C1 4.66 1 5.32 1 6 C2.65 6 4.3 6 6 6 C6 6.33 6 6.66 6 7 C4.02 7 2.04 7 0 7 C0 4.69 0 2.38 0 0 Z " fill="#BEBDBD" transform="translate(449,198)"/>
<path d="M0 0 C1.99954746 -0.04254356 4.00041636 -0.04080783 6 0 C7 1 7 1 7.0625 4.0625 C7.041875 5.031875 7.02125 6.00125 7 7 C6.34 7 5.68 7 5 7 C5 5.35 5 3.7 5 2 C4.01 2 3.02 2 2 2 C2 3.98 2 5.96 2 8 C1.34 8 0.68 8 0 8 C0 5.36 0 2.72 0 0 Z " fill="#B3B3B3" transform="translate(426,198)"/>
<path d="M0 0 C0.99 0.495 0.99 0.495 2 1 C2 2.32 2 3.64 2 5 C3.65 4.34 5.3 3.68 7 3 C6.649375 3.78375 6.29875 4.5675 5.9375 5.375 C5.628125 6.24125 5.31875 7.1075 5 8 C5.33 8.66 5.66 9.32 6 10 C4 10 2 10 0 10 C0 6.7 0 3.4 0 0 Z " fill="#CDCDCD" transform="translate(286,195)"/>
<path d="M0 0 C0.33 0 0.66 0 1 0 C1 1.65 1 3.3 1 5 C2.32 5 3.64 5 5 5 C5 3.35 5 1.7 5 0 C5.66 0 6.32 0 7 0 C7.09765625 6.15234375 7.09765625 6.15234375 7 8 C6 9 6 9 2.9375 9.0625 C1.968125 9.041875 0.99875 9.02125 0 9 C0 8.67 0 8.34 0 8 C1.65 8 3.3 8 5 8 C5 7.34 5 6.68 5 6 C3.35 6 1.7 6 0 6 C0 4.02 0 2.04 0 0 Z " fill="#DEDDDD" transform="translate(486,198)"/>
<path d="M0 0 C0.99 0 1.98 0 3 0 C3 0.66 3 1.32 3 2 C3.66 2 4.32 2 5 2 C4.67 2.99 4.34 3.98 4 5 C3.34 5 2.68 5 2 5 C2.33 6.65 2.66 8.3 3 10 C2.01 10 1.02 10 0 10 C-1.125 3.375 -1.125 3.375 0 0 Z " fill="#959494" transform="translate(401,195)"/>
<path d="M0 0 C0.33 0 0.66 0 1 0 C1 2.64 1 5.28 1 8 C0.030625 8.12375 -0.93875 8.2475 -1.9375 8.375 C-2.948125 8.58125 -3.95875 8.7875 -5 9 C-5.33 9.66 -5.66 10.32 -6 11 C-6.66 11 -7.32 11 -8 11 C-7.6875 9.0625 -7.6875 9.0625 -7 7 C-3.86650268 5.95550089 -3.01031744 6.06576355 0 7 C0 4.69 0 2.38 0 0 Z " fill="#FAF0E2" transform="translate(387,139)"/>
<path d="M0 0 C0.928125 0.0825 1.85625 0.165 2.8125 0.25 C1.8225 0.58 0.8325 0.91 -0.1875 1.25 C-0.1875 1.91 -0.1875 2.57 -0.1875 3.25 C-1.81376404 4.63232443 -3.4800002 5.96937515 -5.1875 7.25 C-6.1875 4.25 -6.1875 4.25 -5.125 2.0625 C-3.1875 0.25 -3.1875 0.25 0 0 Z " fill="#FCF4EB" transform="translate(357.1875,153.75)"/>
<path d="M0 0 C0.721875 0.103125 1.44375 0.20625 2.1875 0.3125 C1.630625 0.539375 1.07375 0.76625 0.5 1 C-2.44546499 2.6717504 -4.45574185 4.89531215 -6.8125 7.3125 C-7.8025 7.9725 -8.7925 8.6325 -9.8125 9.3125 C-7.9542153 4.75125573 -5.1211191 0.56901323 0 0 Z " fill="#FAF0E2" transform="translate(202.8125,86.6875)"/>
<path d="M0 0 C0.5775 0.226875 1.155 0.45375 1.75 0.6875 C0.76 1.3475 -0.23 2.0075 -1.25 2.6875 C-2.24 3.7084375 -2.24 3.7084375 -3.25 4.75 C-5.25 6.6875 -5.25 6.6875 -8.25 7.6875 C-6.86345583 3.41232214 -5.12511737 -0.71182186 0 0 Z " fill="#E4A04A" transform="translate(177.25,58.3125)"/>
<path d="M0 0 C2.64 0 5.28 0 8 0 C8.33 0.99 8.66 1.98 9 3 C8 4 8 4 4.9375 4.0625 C3.968125 4.041875 2.99875 4.02125 2 4 C1.33333333 2.66666667 0.66666667 1.33333333 0 0 Z " fill="#403E3E" transform="translate(465,197)"/>
<path d="M0 0 C0 3.09875672 -0.58261252 5.24421515 -1.5 8.1875 C-1.7784375 9.08855469 -2.056875 9.98960937 -2.34375 10.91796875 C-2.66859375 11.94857422 -2.66859375 11.94857422 -3 13 C-3.33 13 -3.66 13 -4 13 C-4.10824843 11.3973218 -4.18570645 9.79254252 -4.25 8.1875 C-4.29640625 7.29417969 -4.3428125 6.40085938 -4.390625 5.48046875 C-4 3 -4 3 -1.984375 1.17578125 C-1.00210937 0.59376953 -1.00210937 0.59376953 0 0 Z " fill="#FEFCF9" transform="translate(265,147)"/>
<path d="M0 0 C3.125 0.375 3.125 0.375 6 1 C5.401875 1.268125 4.80375 1.53625 4.1875 1.8125 C2.02775192 2.98493467 0.64209744 4.19369282 -1 6 C-1.625 4.125 -1.625 4.125 -2 2 C-1.34 1.34 -0.68 0.68 0 0 Z " fill="#FCF7EF" transform="translate(456,144)"/>
<path d="M0 0 C0.66 0 1.32 0 2 0 C3.06546953 3.1964086 3.07427838 5.65747276 3 9 C2.01 9 1.02 9 0 9 C-1.125 2.25 -1.125 2.25 0 0 Z " fill="#D7D7D7" transform="translate(480,196)"/>
<path d="M0 0 C1.67542976 0.28604898 3.34385343 0.61781233 5 1 C4.67 2.65 4.34 4.3 4 6 C1 6 1 6 -1 5 C-0.34 4.34 0.32 3.68 1 3 C0.34 2.34 -0.32 1.68 -1 1 C-0.67 0.67 -0.34 0.34 0 0 Z " fill="#2B2929" transform="translate(291,196)"/>
<path d="M0 0 C0.99 0 1.98 0 3 0 C3 0.99 3 1.98 3 3 C-1.29 2.67 -5.58 2.34 -10 2 C-10 1.67 -10 1.34 -10 1 C-9.36191406 1.01160156 -8.72382813 1.02320313 -8.06640625 1.03515625 C-7.24011719 1.04417969 -6.41382813 1.05320313 -5.5625 1.0625 C-4.32693359 1.07990234 -4.32693359 1.07990234 -3.06640625 1.09765625 C-1.00836062 1.23267348 -1.00836062 1.23267348 0 0 Z " fill="#464444" transform="translate(216,193)"/>
<path d="M0 0 C1.65 0 3.3 0 5 0 C5 1.32 5 2.64 5 4 C3.35 3.67 1.7 3.34 0 3 C0 2.01 0 1.02 0 0 Z " fill="#646262" transform="translate(277,199)"/>
<path d="M0 0 C1.32 0 2.64 0 4 0 C4 1.32 4 2.64 4 4 C2.35 4.66 0.7 5.32 -1 6 C-0.67 4.02 -0.34 2.04 0 0 Z " fill="#444242" transform="translate(435,193)"/>
<path d="M0 0 C1.32 0 2.64 0 4 0 C4 1.65 4 3.3 4 5 C2.68 5 1.36 5 0 5 C0 3.35 0 1.7 0 0 Z M2 2 C3 4 3 4 3 4 Z " fill="#434242" transform="translate(372,199)"/>
<path d="M0 0 C1.32 0 2.64 0 4 0 C4 1.65 4 3.3 4 5 C2.68 5 1.36 5 0 5 C0 3.35 0 1.7 0 0 Z M1 2 C2 4 2 4 2 4 Z " fill="#484646" transform="translate(224,199)"/>
<path d="M0 0 C1.65 0 3.3 0 5 0 C5 1.32 5 2.64 5 4 C3.35 4 1.7 4 0 4 C0 2.68 0 1.36 0 0 Z " fill="#3E3C3C" transform="translate(208,196)"/>
<path d="M0 0 C1.98 0 3.96 0 6 0 C6 0.99 6 1.98 6 3 C4.02 3 2.04 3 0 3 C0 2.01 0 1.02 0 0 Z " fill="#4B4949" transform="translate(336,196)"/>
</svg>
